M48
METRIC,LZ,000.000
;FILE_FORMAT=3:3
;TYPE=PLATED
;Layer: PTH_Through
;EasyEDA v6.5.44, 2024-08-08 08:25:12
;3ea92b5279af498992845473a6f1f495,b0d0efe6ac584fe99c24f131b36d675a,10
;Gerber Generator version 0.2
;Holesize 1 = 0.762 mm
T01C0.762
;Holesize 2 = 0.901 mm
T02C0.901
;Holesize 3 = 1.000 mm
T03C1.000
;Holesize 4 = 1.101 mm
T04C1.101
;Holesize 5 = 1.200 mm
T05C1.200
;Holesize 6 = 1.301 mm
T06C1.301
%
G05
G90
T01
X025908Y-020320
X025908Y-022860
X025908Y-017780
T02
X010160Y-036449
X007620Y-036449
X005080Y-036449
X002540Y-036449
X010160Y-044069
X007620Y-044069
X005080Y-044069
X002540Y-044069
T03
X-006740Y030743
X-004944Y028947
X-018542Y023876
X-016002Y023876
X-016900Y011294
X-015104Y013090
X-007366Y-000084
X-006096Y002116
X005969Y-009017
X005969Y-006477
X006604Y026289
X006604Y023749
X018880Y-000127
X016680Y001143
X028175Y009812
X025673Y010254
X030861Y022479
X028321Y022479
X020447Y031453
X019177Y029253
T04
X-009652Y-024635
X-009652Y-040135
T05
X035814Y-037563
X035814Y-018063
T06
X023622Y-047371
X026289Y-043053
M30
