G04 Layer: TopLayer*
G04 EasyEDA v6.5.44, 2024-08-08 08:25:12*
G04 3ea92b5279af498992845473a6f1f495,b0d0efe6ac584fe99c24f131b36d675a,10*
G04 Gerber Generator version 0.2*
G04 Scale: 100 percent, Rotated: No, Reflected: No *
G04 Dimensions in millimeters *
G04 leading zeros omitted , absolute positions ,4 integer and 5 decimal *
%FSLAX45Y45*%
%MOMM*%

%AMMACRO1*21,1,$1,$2,0,0,$3*%
%ADD10C,0.2032*%
%ADD11C,0.4000*%
%ADD12C,0.2540*%
%ADD13R,3.5000X1.2000*%
%ADD14R,1.5000X1.5000*%
%ADD15C,1.5000*%
%ADD16C,1.5240*%
%ADD17C,2.3000*%
%ADD18C,1.8796*%
%ADD19MACRO1,1.6X1.6X-45.0000*%
%ADD20C,1.6000*%
%ADD21R,1.6000X1.6000*%
%ADD22MACRO1,1.6X1.6X45.0000*%
%ADD23MACRO1,1.6X1.6X60.0001*%
%ADD24MACRO1,1.6X1.6X150.0001*%
%ADD25MACRO1,1.6X1.6X170.0002*%
%ADD26MACRO1,1.6X1.6X-119.9999*%
%ADD27C,2.5000*%
%ADD28C,0.0118*%

%LPD*%
G36*
X-1562100Y-707948D02*
G01*
X-1562100Y-764489D01*
X-1507439Y-764489D01*
X-1506728Y-762660D01*
X-1255064Y-763016D01*
X-1255064Y-1014984D01*
X-1507032Y-1014984D01*
X-1507439Y-764489D01*
X-1562100Y-764489D01*
X-1562100Y-1070051D01*
X-1200048Y-1070051D01*
X-1200048Y-707948D01*
G37*
G36*
X-1148283Y-707948D02*
G01*
X-1148283Y-813257D01*
X-993140Y-813257D01*
X-992428Y-811377D01*
X-941781Y-811784D01*
X-941781Y-914501D01*
X-992784Y-914501D01*
X-993140Y-813257D01*
X-1148283Y-813257D01*
X-1148283Y-863142D01*
X-1045210Y-863498D01*
X-1045210Y-916736D01*
X-941425Y-916736D01*
X-940714Y-914857D01*
X-838352Y-915212D01*
X-837946Y-966571D01*
X-786231Y-966571D01*
X-785876Y-915212D01*
X-734872Y-915212D01*
X-734860Y-916736D01*
X-682802Y-916736D01*
X-682091Y-914857D01*
X-631444Y-915212D01*
X-631444Y-966216D01*
X-682447Y-966216D01*
X-682802Y-916736D01*
X-734860Y-916736D01*
X-734517Y-966571D01*
X-683158Y-966978D01*
X-683158Y-1017930D01*
X-734517Y-1018336D01*
X-734872Y-1121410D01*
X-837590Y-1121410D01*
X-837590Y-1070406D01*
X-786231Y-1070000D01*
X-786231Y-1018286D01*
X-837946Y-1018286D01*
X-838352Y-1069644D01*
X-889304Y-1069644D01*
X-889711Y-966622D01*
X-941019Y-966216D01*
X-941425Y-916736D01*
X-1045210Y-916736D01*
X-1045210Y-966216D01*
X-1096213Y-966216D01*
X-1096619Y-914857D01*
X-1148283Y-914857D01*
X-1148283Y-966571D01*
X-1096975Y-966978D01*
X-1096975Y-1017930D01*
X-1148283Y-1018336D01*
X-1148283Y-1070051D01*
X-1096619Y-1070051D01*
X-1096213Y-1018692D01*
X-1045210Y-1018692D01*
X-1045201Y-1020165D01*
X-993140Y-1020165D01*
X-992428Y-1018286D01*
X-941781Y-1018692D01*
X-941781Y-1069644D01*
X-992784Y-1069644D01*
X-993140Y-1020165D01*
X-1045201Y-1020165D01*
X-1044854Y-1070000D01*
X-993495Y-1070406D01*
X-993495Y-1071880D01*
X-941425Y-1071880D01*
X-940714Y-1070000D01*
X-890066Y-1070406D01*
X-890066Y-1121410D01*
X-941019Y-1121410D01*
X-941425Y-1071880D01*
X-993495Y-1071880D01*
X-993495Y-1121410D01*
X-1406906Y-1121765D01*
X-1407312Y-1224838D01*
X-1458264Y-1224838D01*
X-1458671Y-1173480D01*
X-1510030Y-1173124D01*
X-1510385Y-1121765D01*
X-1562100Y-1121765D01*
X-1562100Y-1173480D01*
X-1510741Y-1173835D01*
X-1510741Y-1224838D01*
X-1562100Y-1225245D01*
X-1562100Y-1227074D01*
X-1510385Y-1227074D01*
X-1509674Y-1225194D01*
X-1459026Y-1225600D01*
X-1459026Y-1276553D01*
X-1406550Y-1276553D01*
X-1406550Y-1225600D01*
X-1355191Y-1225194D01*
X-1355191Y-1174445D01*
X-1354175Y-1173480D01*
X-1303832Y-1173835D01*
X-1303828Y-1175359D01*
X-1251762Y-1175359D01*
X-1251051Y-1173480D01*
X-1148689Y-1173835D01*
X-1148689Y-1224838D01*
X-1251407Y-1224838D01*
X-1251762Y-1175359D01*
X-1303828Y-1175359D01*
X-1303478Y-1276553D01*
X-1147927Y-1276553D01*
X-1147927Y-1225600D01*
X-1045210Y-1225600D01*
X-1044854Y-1276908D01*
X-993140Y-1276908D01*
X-992784Y-1173835D01*
X-941781Y-1173835D01*
X-941425Y-1328674D01*
X-889711Y-1328674D01*
X-889711Y-1122730D01*
X-888695Y-1121714D01*
X-838352Y-1122121D01*
X-837946Y-1173480D01*
X-786587Y-1173835D01*
X-786587Y-1175359D01*
X-734517Y-1175359D01*
X-733806Y-1173480D01*
X-683158Y-1173835D01*
X-683158Y-1224838D01*
X-734161Y-1224838D01*
X-734517Y-1175359D01*
X-786587Y-1175359D01*
X-786587Y-1224838D01*
X-837946Y-1225245D01*
X-837946Y-1227074D01*
X-682802Y-1227074D01*
X-682091Y-1225194D01*
X-527964Y-1225600D01*
X-527964Y-1328267D01*
X-630682Y-1328267D01*
X-631088Y-1276959D01*
X-682447Y-1276553D01*
X-682802Y-1227074D01*
X-837946Y-1227074D01*
X-837946Y-1276908D01*
X-786587Y-1277315D01*
X-786587Y-1330502D01*
X-682802Y-1330502D01*
X-682091Y-1328623D01*
X-631444Y-1329029D01*
X-631444Y-1380032D01*
X-682447Y-1380032D01*
X-682802Y-1330502D01*
X-786587Y-1330502D01*
X-786587Y-1483461D01*
X-837590Y-1483461D01*
X-837946Y-1380388D01*
X-1044498Y-1380032D01*
X-1044854Y-1328674D01*
X-1096213Y-1328267D01*
X-1096619Y-1276959D01*
X-1147927Y-1276553D01*
X-1303478Y-1276553D01*
X-1303477Y-1276908D01*
X-1148689Y-1277315D01*
X-1148283Y-1432102D01*
X-1045210Y-1432458D01*
X-1045210Y-1433982D01*
X-941425Y-1433982D01*
X-940714Y-1432102D01*
X-890066Y-1432458D01*
X-890066Y-1483461D01*
X-941019Y-1483461D01*
X-941425Y-1433982D01*
X-1045210Y-1433982D01*
X-1045210Y-1483461D01*
X-1096568Y-1483868D01*
X-1096568Y-1638604D01*
X-1044498Y-1638604D01*
X-1044498Y-1587652D01*
X-993140Y-1587246D01*
X-993140Y-1484833D01*
X-992124Y-1483817D01*
X-941781Y-1484172D01*
X-941769Y-1485696D01*
X-889711Y-1485696D01*
X-889000Y-1483817D01*
X-838352Y-1484172D01*
X-838352Y-1535176D01*
X-889304Y-1535176D01*
X-889711Y-1485696D01*
X-941769Y-1485696D01*
X-941374Y-1535531D01*
X-890066Y-1535938D01*
X-890066Y-1586890D01*
X-941374Y-1587296D01*
X-941781Y-1638604D01*
X-1096568Y-1638604D01*
X-1096568Y-1638960D01*
X-1045210Y-1639366D01*
X-1045210Y-1690370D01*
X-1199642Y-1690370D01*
X-1199642Y-1639366D01*
X-1148283Y-1638960D01*
X-1148283Y-1587296D01*
X-1199642Y-1586890D01*
X-1200048Y-1535582D01*
X-1251407Y-1535176D01*
X-1251407Y-1484172D01*
X-1200048Y-1483817D01*
X-1200048Y-1432102D01*
X-1303121Y-1431747D01*
X-1303477Y-1328674D01*
X-1354836Y-1328267D01*
X-1355242Y-1276959D01*
X-1406550Y-1276553D01*
X-1510030Y-1276553D01*
X-1510385Y-1227074D01*
X-1562100Y-1227074D01*
X-1562100Y-1330502D01*
X-1458671Y-1330502D01*
X-1457960Y-1328623D01*
X-1355598Y-1329029D01*
X-1355598Y-1431747D01*
X-1406550Y-1431747D01*
X-1406956Y-1380388D01*
X-1458264Y-1380032D01*
X-1458671Y-1330502D01*
X-1562100Y-1330502D01*
X-1562100Y-1380337D01*
X-1510741Y-1380744D01*
X-1510741Y-1431747D01*
X-1562100Y-1432102D01*
X-1562100Y-1433982D01*
X-1510385Y-1433982D01*
X-1509674Y-1432102D01*
X-1459026Y-1432458D01*
X-1459026Y-1433931D01*
X-1355242Y-1433931D01*
X-1354480Y-1432102D01*
X-1303832Y-1432458D01*
X-1303832Y-1535176D01*
X-1354836Y-1535176D01*
X-1355242Y-1433931D01*
X-1459026Y-1433931D01*
X-1459026Y-1483461D01*
X-1510030Y-1483461D01*
X-1510385Y-1433982D01*
X-1562100Y-1433982D01*
X-1562100Y-1483817D01*
X-1510741Y-1484172D01*
X-1510729Y-1485696D01*
X-1458671Y-1485696D01*
X-1457960Y-1483817D01*
X-1407312Y-1484172D01*
X-1407312Y-1535176D01*
X-1458264Y-1535176D01*
X-1458671Y-1485696D01*
X-1510729Y-1485696D01*
X-1510334Y-1535531D01*
X-1459026Y-1535938D01*
X-1459026Y-1586890D01*
X-1562100Y-1587296D01*
X-1562100Y-1589125D01*
X-1458671Y-1589125D01*
X-1457960Y-1587246D01*
X-1407312Y-1587652D01*
X-1407312Y-1638604D01*
X-1354836Y-1638604D01*
X-1354836Y-1587652D01*
X-1303477Y-1587246D01*
X-1303477Y-1536547D01*
X-1302461Y-1535531D01*
X-1252118Y-1535938D01*
X-1251712Y-1587246D01*
X-1200404Y-1587652D01*
X-1200404Y-1638604D01*
X-1458264Y-1638604D01*
X-1458671Y-1589125D01*
X-1562100Y-1589125D01*
X-1562100Y-1794154D01*
X-1458671Y-1794154D01*
X-1458264Y-1691081D01*
X-1200404Y-1691081D01*
X-1200404Y-1742084D01*
X-1044498Y-1742084D01*
X-1044498Y-1691081D01*
X-941425Y-1690725D01*
X-941019Y-1639366D01*
X-837946Y-1639011D01*
X-837946Y-1588262D01*
X-836980Y-1587246D01*
X-786587Y-1587652D01*
X-786582Y-1589125D01*
X-734517Y-1589125D01*
X-733806Y-1587246D01*
X-683158Y-1587652D01*
X-683158Y-1690370D01*
X-734161Y-1690370D01*
X-734517Y-1589125D01*
X-786582Y-1589125D01*
X-786231Y-1690725D01*
X-734872Y-1691081D01*
X-734872Y-1692605D01*
X-682802Y-1692605D01*
X-682091Y-1690725D01*
X-631444Y-1691081D01*
X-631444Y-1742084D01*
X-682447Y-1742084D01*
X-682802Y-1692605D01*
X-734872Y-1692605D01*
X-734872Y-1742084D01*
X-786231Y-1742490D01*
X-786587Y-1793798D01*
X-837590Y-1793798D01*
X-837946Y-1690725D01*
X-889660Y-1690725D01*
X-890066Y-1793798D01*
X-941019Y-1793798D01*
X-941425Y-1742439D01*
X-1044498Y-1742084D01*
X-1200404Y-1742084D01*
X-1251762Y-1742490D01*
X-1251762Y-1794154D01*
X-1148689Y-1794560D01*
X-1148527Y-1897227D01*
X-1096213Y-1897227D01*
X-1096213Y-1846275D01*
X-1044854Y-1845868D01*
X-1044854Y-1795170D01*
X-1043889Y-1794154D01*
X-941781Y-1794560D01*
X-941374Y-1845868D01*
X-890066Y-1846275D01*
X-890066Y-1847748D01*
X-837996Y-1847748D01*
X-837285Y-1845868D01*
X-786587Y-1846275D01*
X-786587Y-2000707D01*
X-734161Y-2000707D01*
X-734161Y-1794560D01*
X-631088Y-1794154D01*
X-630682Y-1742795D01*
X-579374Y-1742439D01*
X-578967Y-1691081D01*
X-527659Y-1690725D01*
X-527253Y-1639366D01*
X-476250Y-1639366D01*
X-475894Y-1690725D01*
X-424180Y-1690725D01*
X-424180Y-1639011D01*
X-475538Y-1638604D01*
X-475894Y-1587296D01*
X-579323Y-1587296D01*
X-579729Y-1638604D01*
X-630682Y-1638604D01*
X-631088Y-1587296D01*
X-682447Y-1586890D01*
X-682447Y-1432458D01*
X-579729Y-1432458D01*
X-579323Y-1535531D01*
X-475894Y-1535531D01*
X-475894Y-1483868D01*
X-527253Y-1483461D01*
X-527659Y-1432102D01*
X-578967Y-1431747D01*
X-578967Y-1380744D01*
X-527608Y-1380337D01*
X-527608Y-1329639D01*
X-526643Y-1328623D01*
X-424535Y-1329029D01*
X-424180Y-1535176D01*
X-372059Y-1535176D01*
X-372059Y-1484172D01*
X-268986Y-1483817D01*
X-268986Y-1433068D01*
X-267970Y-1432102D01*
X-217627Y-1432458D01*
X-217627Y-1535176D01*
X-268986Y-1535582D01*
X-269392Y-1586890D01*
X-320344Y-1586890D01*
X-320751Y-1535582D01*
X-372059Y-1535176D01*
X-424180Y-1535176D01*
X-424180Y-1535531D01*
X-372821Y-1535938D01*
X-372414Y-1587246D01*
X-321106Y-1587652D01*
X-321106Y-1589125D01*
X-269036Y-1589125D01*
X-268274Y-1587246D01*
X-217627Y-1587652D01*
X-217627Y-1638604D01*
X-268630Y-1638604D01*
X-269036Y-1589125D01*
X-321106Y-1589125D01*
X-321106Y-1638604D01*
X-372414Y-1639011D01*
X-372422Y-1640839D01*
X-320751Y-1640839D01*
X-320040Y-1638960D01*
X-269392Y-1639366D01*
X-269392Y-1742084D01*
X-320344Y-1742084D01*
X-320751Y-1640839D01*
X-372422Y-1640839D01*
X-372821Y-1742084D01*
X-527608Y-1742439D01*
X-527818Y-1796034D01*
X-475894Y-1796034D01*
X-475183Y-1794154D01*
X-321106Y-1794560D01*
X-321106Y-1948992D01*
X-475538Y-1948992D01*
X-475894Y-1796034D01*
X-527818Y-1796034D01*
X-527964Y-1845513D01*
X-631037Y-1845919D01*
X-631444Y-1897227D01*
X-682802Y-1897634D01*
X-682802Y-1949348D01*
X-631088Y-1949348D01*
X-630682Y-1897989D01*
X-579729Y-1897989D01*
X-579729Y-2000707D01*
X-837590Y-2000707D01*
X-837996Y-1847748D01*
X-890066Y-1847748D01*
X-890066Y-1948992D01*
X-992784Y-1948992D01*
X-993140Y-1897634D01*
X-1096213Y-1897227D01*
X-1148527Y-1897227D01*
X-1148443Y-1951177D01*
X-1096619Y-1951177D01*
X-1095857Y-1949297D01*
X-1045210Y-1949704D01*
X-1045210Y-2000707D01*
X-1096213Y-2000707D01*
X-1096619Y-1951177D01*
X-1148443Y-1951177D01*
X-1148361Y-2002942D01*
X-1044905Y-2002942D01*
X-1044143Y-2001062D01*
X-993495Y-2001418D01*
X-993495Y-2052421D01*
X-1044498Y-2052421D01*
X-1044905Y-2002942D01*
X-1148361Y-2002942D01*
X-1148283Y-2052777D01*
X-1045210Y-2053183D01*
X-1045210Y-2155850D01*
X-1148283Y-2156256D01*
X-1148283Y-2207971D01*
X-1044854Y-2207971D01*
X-1044498Y-2156612D01*
X-993140Y-2156206D01*
X-992784Y-2053183D01*
X-941425Y-2052777D01*
X-941019Y-2001418D01*
X-838352Y-2001418D01*
X-838352Y-2104136D01*
X-941425Y-2104542D01*
X-941425Y-2106371D01*
X-837996Y-2106371D01*
X-837285Y-2104491D01*
X-786587Y-2104898D01*
X-786587Y-2155850D01*
X-837590Y-2155850D01*
X-837996Y-2106371D01*
X-941425Y-2106371D01*
X-941425Y-2156206D01*
X-890066Y-2156612D01*
X-889660Y-2207971D01*
X-786231Y-2207971D01*
X-785876Y-2156612D01*
X-734517Y-2156206D01*
X-734161Y-2104898D01*
X-682802Y-2104491D01*
X-682447Y-2053183D01*
X-631444Y-2053183D01*
X-631432Y-2054656D01*
X-527608Y-2054656D01*
X-526897Y-2052777D01*
X-476250Y-2053183D01*
X-476250Y-2155850D01*
X-527253Y-2155850D01*
X-527608Y-2054656D01*
X-631432Y-2054656D01*
X-631037Y-2104491D01*
X-579729Y-2104898D01*
X-579729Y-2155850D01*
X-631088Y-2156256D01*
X-631088Y-2207971D01*
X-475894Y-2207971D01*
X-475538Y-2156612D01*
X-424180Y-2156206D01*
X-424180Y-2052828D01*
X-475538Y-2052421D01*
X-475538Y-2001418D01*
X-217271Y-2001062D01*
X-217271Y-1949348D01*
X-268630Y-1948992D01*
X-268630Y-1897989D01*
X-217271Y-1897583D01*
X-216916Y-1794560D01*
X-113842Y-1794154D01*
X-113842Y-1742490D01*
X-165201Y-1742084D01*
X-165557Y-1690725D01*
X-216916Y-1690370D01*
X-216916Y-1639366D01*
X-114198Y-1639366D01*
X-113792Y-1690725D01*
X-62128Y-1690725D01*
X-62128Y-1639011D01*
X-113436Y-1638604D01*
X-113842Y-1587296D01*
X-216916Y-1586890D01*
X-216916Y-1535938D01*
X-165557Y-1535531D01*
X-165201Y-1432458D01*
X-114198Y-1432458D01*
X-113792Y-1535531D01*
X-62128Y-1535531D01*
X-62128Y-1276908D01*
X-113792Y-1276908D01*
X-114198Y-1380032D01*
X-372059Y-1380032D01*
X-372059Y-1329029D01*
X-217271Y-1328623D01*
X-216916Y-1277315D01*
X-165557Y-1276908D01*
X-165201Y-1225600D01*
X-113842Y-1225194D01*
X-113436Y-1173835D01*
X-62128Y-1173480D01*
X-62128Y-1121765D01*
X-217271Y-1121765D01*
X-217627Y-1276553D01*
X-320344Y-1276553D01*
X-320344Y-1225600D01*
X-268986Y-1225194D01*
X-268986Y-1121765D01*
X-320700Y-1121765D01*
X-321106Y-1173124D01*
X-372414Y-1173480D01*
X-372821Y-1276553D01*
X-475538Y-1276553D01*
X-475538Y-1225600D01*
X-424180Y-1225194D01*
X-424180Y-1121765D01*
X-475894Y-1121765D01*
X-476250Y-1224838D01*
X-527253Y-1224838D01*
X-527608Y-1121765D01*
X-579323Y-1121765D01*
X-579729Y-1173124D01*
X-630682Y-1173124D01*
X-631088Y-1121765D01*
X-682447Y-1121410D01*
X-682447Y-1018692D01*
X-631444Y-1018692D01*
X-631037Y-1070051D01*
X-579374Y-1070051D01*
X-578967Y-966978D01*
X-527659Y-966571D01*
X-527253Y-915212D01*
X-475894Y-914857D01*
X-475894Y-811428D01*
X-527253Y-811022D01*
X-527659Y-759714D01*
X-578967Y-759307D01*
X-579374Y-707948D01*
X-631088Y-707948D01*
X-631088Y-759663D01*
X-579729Y-760069D01*
X-579729Y-811022D01*
X-631037Y-811428D01*
X-631052Y-813257D01*
X-579374Y-813257D01*
X-578662Y-811377D01*
X-527964Y-811784D01*
X-527964Y-862787D01*
X-578967Y-862787D01*
X-579374Y-813257D01*
X-631052Y-813257D01*
X-631444Y-862787D01*
X-734161Y-862787D01*
X-734517Y-811428D01*
X-786231Y-811428D01*
X-786440Y-864971D01*
X-631088Y-864971D01*
X-630377Y-863142D01*
X-579729Y-863498D01*
X-579729Y-914501D01*
X-630682Y-914501D01*
X-631088Y-864971D01*
X-786440Y-864971D01*
X-786587Y-914501D01*
X-837590Y-914501D01*
X-837946Y-811428D01*
X-941019Y-811022D01*
X-941019Y-760069D01*
X-889711Y-759663D01*
X-889711Y-707948D01*
G37*
G36*
X-837946Y-707948D02*
G01*
X-837946Y-759714D01*
X-786231Y-759714D01*
X-786231Y-707948D01*
G37*
G36*
X-734517Y-707948D02*
G01*
X-734517Y-759714D01*
X-682802Y-759714D01*
X-682802Y-707948D01*
G37*
G36*
X-424180Y-707948D02*
G01*
X-424180Y-764489D01*
X-369519Y-764489D01*
X-368808Y-762660D01*
X-117144Y-763016D01*
X-117144Y-1014984D01*
X-369112Y-1014984D01*
X-369519Y-764489D01*
X-424180Y-764489D01*
X-424180Y-1070051D01*
X-62128Y-1070051D01*
X-62128Y-707948D01*
G37*
G36*
X-1458671Y-811428D02*
G01*
X-1458671Y-966571D01*
X-1303477Y-966571D01*
X-1303477Y-811428D01*
G37*
G36*
X-320700Y-811428D02*
G01*
X-320700Y-966571D01*
X-165557Y-966571D01*
X-165557Y-811428D01*
G37*
G36*
X-527608Y-1018286D02*
G01*
X-527608Y-1070051D01*
X-475894Y-1070051D01*
X-475894Y-1018286D01*
G37*
G36*
X-1251762Y-1328674D02*
G01*
X-1251762Y-1380388D01*
X-1200048Y-1380388D01*
X-1200048Y-1328674D01*
G37*
G36*
X-1355191Y-1742439D02*
G01*
X-1355191Y-1794154D01*
X-1303477Y-1794154D01*
X-1303477Y-1742439D01*
G37*
G36*
X-1562100Y-1845868D02*
G01*
X-1562100Y-1902409D01*
X-1507439Y-1902409D01*
X-1506728Y-1900580D01*
X-1255064Y-1900936D01*
X-1255064Y-2152904D01*
X-1507032Y-2152904D01*
X-1507439Y-1902409D01*
X-1562100Y-1902409D01*
X-1562100Y-2207971D01*
X-1200048Y-2207971D01*
X-1200048Y-1845868D01*
G37*
G36*
X-424180Y-1845868D02*
G01*
X-424180Y-1897634D01*
X-372465Y-1897634D01*
X-372465Y-1845868D01*
G37*
G36*
X-165557Y-1897634D02*
G01*
X-165557Y-2001062D01*
X-114198Y-2001418D01*
X-114198Y-2052421D01*
X-217271Y-2052777D01*
X-217627Y-2104136D01*
X-268630Y-2104136D01*
X-269036Y-2052777D01*
X-372465Y-2052777D01*
X-372465Y-2207971D01*
X-269036Y-2207971D01*
X-268630Y-2156612D01*
X-165557Y-2156206D01*
X-165201Y-2104898D01*
X-114198Y-2104898D01*
X-113792Y-2156256D01*
X-62128Y-2156256D01*
X-62128Y-2001062D01*
X-113436Y-2000707D01*
X-113436Y-1949704D01*
X-62128Y-1949297D01*
X-62128Y-1897634D01*
G37*
G36*
X-1458671Y-1949348D02*
G01*
X-1458671Y-2104491D01*
X-1303477Y-2104491D01*
X-1303477Y-1949348D01*
G37*
G36*
X-2019300Y-964184D02*
G01*
X-2019300Y-1032764D01*
X-2008632Y-1032764D01*
X-2004822Y-1006094D01*
X-1904492Y-1005992D01*
X-1843786Y-1004569D01*
X-2019300Y-1075944D01*
X-2019300Y-1089152D01*
X-1843278Y-1158240D01*
X-1979015Y-1157782D01*
X-2005584Y-1157224D01*
X-2008632Y-1130808D01*
X-2019300Y-1130808D01*
X-2019300Y-1214120D01*
X-2008632Y-1214120D01*
X-2005584Y-1185672D01*
X-1971700Y-1185265D01*
X-1882190Y-1185164D01*
X-1828292Y-1185672D01*
X-1825243Y-1214374D01*
X-1814575Y-1214374D01*
X-1814575Y-1155446D01*
X-1984248Y-1089152D01*
X-1814575Y-1020064D01*
X-1814575Y-964184D01*
X-1825243Y-964184D01*
X-1828546Y-992124D01*
X-2004822Y-991869D01*
X-2008632Y-964184D01*
G37*
G36*
X-1985772Y-1236472D02*
G01*
X-1991664Y-1236827D01*
X-1997100Y-1237894D01*
X-2001977Y-1239621D01*
X-2006396Y-1241958D01*
X-2010308Y-1244854D01*
X-2013661Y-1248257D01*
X-2016556Y-1252169D01*
X-2018893Y-1256436D01*
X-2020722Y-1261110D01*
X-2022043Y-1266088D01*
X-2022856Y-1271371D01*
X-2023110Y-1276858D01*
X-2022754Y-1283462D01*
X-2022044Y-1287272D01*
X-2005330Y-1287272D01*
X-2004974Y-1282141D01*
X-2003907Y-1277366D01*
X-2002129Y-1273149D01*
X-1999589Y-1269492D01*
X-1996287Y-1266494D01*
X-1992172Y-1264259D01*
X-1987245Y-1262888D01*
X-1981454Y-1262380D01*
X-1977237Y-1262634D01*
X-1972970Y-1263548D01*
X-1968703Y-1265326D01*
X-1964436Y-1268120D01*
X-1960219Y-1272184D01*
X-1956104Y-1277721D01*
X-1952091Y-1284884D01*
X-1948180Y-1293876D01*
X-1943658Y-1306423D01*
X-1938782Y-1322070D01*
X-1987550Y-1322070D01*
X-1995881Y-1310995D01*
X-1998980Y-1306474D01*
X-2001367Y-1302359D01*
X-2003196Y-1298600D01*
X-2004415Y-1294942D01*
X-2005126Y-1291183D01*
X-2005330Y-1287272D01*
X-2022044Y-1287272D01*
X-2021636Y-1289456D01*
X-2019757Y-1295044D01*
X-2017115Y-1300378D01*
X-2013712Y-1305610D01*
X-2009495Y-1310944D01*
X-2004517Y-1316583D01*
X-1998725Y-1322578D01*
X-2003958Y-1323848D01*
X-2008682Y-1325829D01*
X-2012746Y-1328420D01*
X-2016201Y-1331620D01*
X-2018944Y-1335430D01*
X-2020925Y-1339748D01*
X-2022195Y-1344625D01*
X-2022602Y-1350010D01*
X-2021789Y-1357630D01*
X-2019147Y-1364538D01*
X-2014372Y-1370787D01*
X-2007107Y-1376426D01*
X-2001012Y-1370838D01*
X-2004263Y-1367891D01*
X-2006650Y-1364996D01*
X-2008124Y-1361897D01*
X-2008632Y-1358392D01*
X-2007616Y-1353769D01*
X-2004263Y-1350213D01*
X-1998218Y-1347978D01*
X-1989074Y-1347216D01*
X-1922525Y-1347216D01*
X-1915718Y-1347012D01*
X-1909419Y-1346504D01*
X-1903628Y-1345590D01*
X-1898396Y-1344320D01*
X-1893620Y-1342694D01*
X-1889353Y-1340713D01*
X-1885543Y-1338326D01*
X-1882190Y-1335582D01*
X-1879244Y-1332433D01*
X-1876755Y-1328928D01*
X-1874723Y-1325016D01*
X-1873046Y-1320749D01*
X-1871776Y-1316075D01*
X-1870913Y-1310995D01*
X-1870354Y-1305560D01*
X-1870202Y-1299718D01*
X-1870506Y-1292047D01*
X-1871370Y-1284782D01*
X-1872792Y-1277924D01*
X-1874774Y-1271574D01*
X-1877263Y-1265682D01*
X-1880260Y-1260297D01*
X-1883714Y-1255522D01*
X-1887677Y-1251254D01*
X-1892046Y-1247597D01*
X-1896872Y-1244600D01*
X-1902155Y-1242212D01*
X-1907793Y-1240536D01*
X-1912823Y-1241806D01*
X-1916480Y-1244549D01*
X-1918716Y-1248664D01*
X-1919478Y-1254252D01*
X-1918614Y-1259636D01*
X-1915972Y-1263954D01*
X-1911553Y-1267256D01*
X-1905254Y-1269492D01*
X-1884425Y-1275588D01*
X-1883257Y-1280210D01*
X-1882495Y-1284579D01*
X-1882038Y-1288796D01*
X-1881886Y-1292860D01*
X-1882292Y-1300022D01*
X-1883562Y-1306118D01*
X-1885950Y-1311148D01*
X-1889556Y-1315161D01*
X-1894586Y-1318260D01*
X-1901189Y-1320393D01*
X-1909521Y-1321663D01*
X-1919732Y-1322070D01*
X-1929384Y-1322070D01*
X-1934057Y-1303578D01*
X-1936648Y-1294841D01*
X-1939289Y-1287018D01*
X-1942846Y-1277569D01*
X-1946351Y-1269339D01*
X-1949907Y-1262176D01*
X-1953463Y-1256080D01*
X-1957120Y-1250950D01*
X-1960829Y-1246682D01*
X-1964639Y-1243279D01*
X-1968550Y-1240637D01*
X-1972564Y-1238707D01*
X-1976780Y-1237437D01*
X-1981200Y-1236675D01*
G37*
G36*
X-1948180Y-1391920D02*
G01*
X-1954733Y-1392123D01*
X-1961083Y-1392682D01*
X-1967179Y-1393596D01*
X-1973021Y-1394866D01*
X-1978660Y-1396492D01*
X-1983943Y-1398422D01*
X-1989023Y-1400708D01*
X-1993747Y-1403248D01*
X-1998218Y-1406144D01*
X-2002332Y-1409344D01*
X-2006092Y-1412748D01*
X-2009546Y-1416507D01*
X-2012594Y-1420469D01*
X-2015337Y-1424736D01*
X-2017674Y-1429207D01*
X-2019604Y-1433931D01*
X-2021128Y-1438859D01*
X-2022195Y-1443990D01*
X-2022906Y-1449374D01*
X-2023110Y-1454912D01*
X-2022685Y-1462024D01*
X-2007616Y-1462024D01*
X-2007412Y-1457452D01*
X-2006752Y-1453032D01*
X-2005685Y-1448816D01*
X-2004110Y-1444752D01*
X-2002129Y-1440992D01*
X-1999691Y-1437436D01*
X-1996744Y-1434134D01*
X-1993290Y-1431086D01*
X-1989378Y-1428343D01*
X-1984908Y-1425956D01*
X-1979980Y-1423822D01*
X-1974494Y-1422095D01*
X-1968500Y-1420672D01*
X-1961946Y-1419656D01*
X-1954834Y-1419047D01*
X-1947164Y-1418844D01*
X-1939239Y-1419098D01*
X-1931873Y-1419758D01*
X-1925167Y-1420825D01*
X-1918970Y-1422349D01*
X-1913382Y-1424228D01*
X-1908302Y-1426413D01*
X-1903831Y-1428953D01*
X-1899818Y-1431798D01*
X-1896364Y-1434896D01*
X-1893366Y-1438249D01*
X-1890928Y-1441856D01*
X-1888896Y-1445615D01*
X-1887372Y-1449578D01*
X-1886305Y-1453692D01*
X-1885645Y-1457960D01*
X-1885442Y-1462278D01*
X-1885645Y-1466189D01*
X-1886254Y-1470202D01*
X-1887372Y-1474266D01*
X-1888998Y-1478432D01*
X-1891182Y-1482801D01*
X-1894027Y-1487322D01*
X-1897481Y-1492046D01*
X-1901698Y-1497076D01*
X-1990343Y-1497076D01*
X-1994814Y-1492758D01*
X-1998522Y-1488541D01*
X-2001520Y-1484376D01*
X-2003856Y-1480210D01*
X-2005584Y-1475943D01*
X-2006752Y-1471523D01*
X-2007412Y-1466900D01*
X-2007616Y-1462024D01*
X-2022685Y-1462024D01*
X-2021687Y-1467916D01*
X-2019909Y-1473758D01*
X-2017471Y-1479245D01*
X-2014372Y-1484325D01*
X-2010664Y-1489151D01*
X-2006396Y-1493621D01*
X-2001520Y-1497838D01*
X-2022348Y-1499616D01*
X-2019300Y-1547114D01*
X-2009902Y-1547114D01*
X-2007107Y-1522222D01*
X-1838706Y-1522222D01*
X-1795272Y-1522984D01*
X-1792986Y-1519174D01*
X-1805939Y-1471930D01*
X-1815084Y-1471930D01*
X-1817370Y-1497584D01*
X-1890014Y-1497584D01*
X-1884781Y-1492707D01*
X-1880463Y-1487830D01*
X-1877060Y-1482953D01*
X-1874418Y-1477975D01*
X-1872437Y-1472996D01*
X-1871167Y-1467916D01*
X-1870405Y-1462735D01*
X-1870202Y-1457452D01*
X-1870405Y-1451864D01*
X-1871116Y-1446428D01*
X-1872183Y-1441145D01*
X-1873707Y-1436116D01*
X-1875688Y-1431239D01*
X-1878025Y-1426616D01*
X-1880768Y-1422196D01*
X-1883918Y-1418031D01*
X-1887423Y-1414119D01*
X-1891284Y-1410512D01*
X-1895500Y-1407160D01*
X-1900123Y-1404112D01*
X-1905050Y-1401318D01*
X-1910283Y-1398930D01*
X-1915871Y-1396847D01*
X-1921713Y-1395120D01*
X-1927910Y-1393748D01*
X-1934413Y-1392732D01*
X-1941169Y-1392123D01*
G37*
G36*
X-1947672Y-1566164D02*
G01*
X-1954733Y-1566367D01*
X-1961438Y-1566976D01*
X-1967839Y-1567992D01*
X-1973935Y-1569415D01*
X-1979726Y-1571193D01*
X-1985162Y-1573326D01*
X-1990242Y-1575765D01*
X-1994966Y-1578610D01*
X-1999335Y-1581759D01*
X-2003399Y-1585264D01*
X-2007057Y-1589024D01*
X-2010359Y-1593088D01*
X-2013305Y-1597456D01*
X-2015896Y-1602079D01*
X-2018080Y-1607007D01*
X-2019858Y-1612138D01*
X-2021281Y-1617522D01*
X-2022297Y-1623110D01*
X-2022906Y-1628952D01*
X-2023110Y-1634998D01*
X-2022856Y-1641652D01*
X-2022043Y-1647952D01*
X-2020722Y-1653946D01*
X-2018893Y-1659585D01*
X-2016556Y-1664970D01*
X-2013813Y-1669948D01*
X-2010562Y-1674622D01*
X-2006904Y-1678990D01*
X-2002840Y-1682953D01*
X-1998370Y-1686610D01*
X-1993544Y-1689963D01*
X-1988312Y-1692910D01*
X-1983993Y-1686814D01*
X-1988718Y-1682648D01*
X-1993036Y-1678330D01*
X-1996795Y-1673707D01*
X-1999996Y-1668729D01*
X-2002586Y-1663344D01*
X-2004517Y-1657400D01*
X-2005685Y-1650898D01*
X-2006092Y-1643634D01*
X-2005838Y-1638147D01*
X-2005126Y-1632915D01*
X-2003958Y-1627936D01*
X-2002282Y-1623212D01*
X-2000148Y-1618792D01*
X-1997557Y-1614627D01*
X-1994458Y-1610817D01*
X-1990902Y-1607261D01*
X-1986838Y-1604111D01*
X-1982317Y-1601317D01*
X-1977339Y-1598879D01*
X-1971903Y-1596796D01*
X-1965960Y-1595170D01*
X-1959610Y-1593951D01*
X-1952701Y-1593138D01*
X-1945386Y-1592834D01*
X-1945538Y-1652016D01*
X-1934464Y-1652016D01*
X-1933702Y-1593088D01*
X-1925066Y-1594205D01*
X-1917242Y-1595932D01*
X-1910283Y-1598218D01*
X-1904136Y-1601063D01*
X-1898751Y-1604365D01*
X-1894179Y-1608023D01*
X-1890318Y-1611985D01*
X-1887270Y-1616252D01*
X-1884883Y-1620723D01*
X-1883206Y-1625346D01*
X-1882190Y-1630019D01*
X-1881886Y-1634744D01*
X-1882648Y-1641906D01*
X-1884781Y-1648358D01*
X-1888134Y-1654149D01*
X-1892503Y-1659077D01*
X-1897837Y-1663039D01*
X-1903831Y-1666036D01*
X-1910435Y-1667865D01*
X-1917446Y-1668525D01*
X-1924304Y-1667814D01*
X-1929688Y-1665325D01*
X-1933193Y-1660296D01*
X-1934464Y-1652016D01*
X-1945538Y-1652016D01*
X-1945639Y-1691132D01*
X-1942134Y-1692148D01*
X-1938070Y-1692859D01*
X-1933549Y-1693265D01*
X-1928622Y-1693418D01*
X-1922018Y-1693113D01*
X-1915769Y-1692300D01*
X-1909825Y-1690928D01*
X-1904288Y-1689100D01*
X-1899107Y-1686763D01*
X-1894281Y-1683969D01*
X-1889861Y-1680768D01*
X-1885899Y-1677111D01*
X-1882292Y-1673098D01*
X-1879193Y-1668729D01*
X-1876501Y-1664055D01*
X-1874266Y-1659026D01*
X-1872488Y-1653692D01*
X-1871218Y-1648155D01*
X-1870456Y-1642313D01*
X-1870202Y-1636268D01*
X-1870405Y-1630629D01*
X-1871116Y-1625092D01*
X-1872183Y-1619707D01*
X-1873707Y-1614424D01*
X-1875688Y-1609344D01*
X-1878025Y-1604416D01*
X-1880768Y-1599742D01*
X-1883867Y-1595221D01*
X-1887372Y-1591005D01*
X-1891233Y-1587042D01*
X-1895449Y-1583334D01*
X-1899970Y-1579930D01*
X-1904898Y-1576882D01*
X-1910080Y-1574139D01*
X-1915617Y-1571802D01*
X-1921459Y-1569821D01*
X-1927606Y-1568246D01*
X-1934006Y-1567129D01*
X-1940712Y-1566418D01*
G37*
G36*
X-1884425Y-1779016D02*
G01*
X-1887220Y-1796542D01*
X-2021332Y-1845818D01*
X-2021332Y-1856739D01*
X-1909572Y-1897380D01*
X-1940407Y-1907793D01*
X-1987753Y-1925218D01*
X-2021332Y-1938020D01*
X-2021332Y-1948942D01*
X-1887982Y-1993646D01*
X-1884425Y-2010918D01*
X-1874266Y-2010918D01*
X-1874266Y-1955038D01*
X-1884425Y-1955038D01*
X-1888236Y-1978914D01*
X-1986280Y-1949450D01*
X-1888236Y-1912620D01*
X-1884425Y-1935988D01*
X-1874266Y-1935988D01*
X-1874266Y-1869439D01*
X-1884425Y-1869439D01*
X-1887982Y-1893062D01*
X-1987550Y-1857502D01*
X-1887728Y-1824228D01*
X-1884425Y-1848357D01*
X-1874266Y-1848357D01*
X-1874266Y-1779016D01*
G37*
G36*
X-1896110Y-2022602D02*
G01*
X-1898396Y-2047493D01*
X-1917141Y-2048052D01*
X-1960676Y-2048256D01*
X-2006346Y-2047748D01*
X-2009902Y-2024380D01*
X-2019300Y-2024380D01*
X-2019300Y-2094738D01*
X-2009902Y-2094738D01*
X-2006346Y-2073656D01*
X-1980234Y-2073300D01*
X-1913889Y-2073148D01*
X-1873250Y-2073656D01*
X-1870456Y-2069592D01*
X-1886966Y-2022602D01*
G37*
G36*
X-1816100Y-2040382D02*
G01*
X-1823669Y-2041906D01*
X-1829714Y-2046122D01*
X-1833727Y-2052370D01*
X-1835150Y-2060193D01*
X-1833727Y-2067763D01*
X-1829714Y-2073960D01*
X-1823669Y-2078177D01*
X-1816100Y-2079752D01*
X-1808480Y-2078177D01*
X-1802638Y-2073960D01*
X-1798878Y-2067763D01*
X-1797557Y-2060193D01*
X-1798878Y-2052370D01*
X-1802638Y-2046122D01*
X-1808480Y-2041906D01*
G37*
G36*
X-1887728Y-2108454D02*
G01*
X-1887728Y-2134362D01*
X-1987550Y-2134108D01*
X-1996084Y-2134717D01*
X-2003399Y-2136444D01*
X-2009495Y-2139289D01*
X-2014474Y-2143201D01*
X-2018284Y-2148128D01*
X-2020976Y-2154021D01*
X-2022602Y-2160879D01*
X-2023110Y-2168652D01*
X-2022856Y-2174392D01*
X-2022043Y-2179726D01*
X-2020773Y-2184755D01*
X-2018995Y-2189378D01*
X-2016760Y-2193645D01*
X-2014118Y-2197557D01*
X-2011070Y-2201062D01*
X-2007616Y-2204212D01*
X-2000504Y-2198116D01*
X-2004314Y-2192426D01*
X-2007006Y-2187295D01*
X-2008632Y-2182317D01*
X-2009139Y-2177034D01*
X-2007870Y-2169668D01*
X-2003806Y-2164181D01*
X-1996693Y-2160727D01*
X-1986280Y-2159508D01*
X-1887728Y-2159508D01*
X-1887728Y-2200910D01*
X-1874266Y-2200910D01*
X-1874266Y-2159762D01*
X-1832102Y-2161540D01*
X-1832102Y-2143760D01*
X-1873504Y-2135632D01*
X-1876806Y-2108454D01*
G37*
G36*
X-1815084Y-2213864D02*
G01*
X-1817370Y-2238756D01*
X-1980234Y-2238603D01*
X-2006346Y-2238248D01*
X-2009902Y-2215388D01*
X-2019300Y-2215388D01*
X-2019300Y-2285746D01*
X-2009902Y-2285746D01*
X-2006346Y-2264664D01*
X-1973427Y-2264003D01*
X-1909825Y-2263902D01*
X-1904492Y-2270048D01*
X-1900123Y-2275890D01*
X-1896567Y-2281478D01*
X-1893874Y-2286914D01*
X-1891842Y-2292197D01*
X-1890522Y-2297430D01*
X-1889760Y-2302611D01*
X-1889506Y-2307844D01*
X-1889963Y-2313889D01*
X-1891334Y-2319121D01*
X-1893824Y-2323541D01*
X-1897481Y-2327148D01*
X-1902460Y-2329942D01*
X-1908911Y-2331923D01*
X-1916887Y-2333091D01*
X-1926589Y-2333498D01*
X-1980488Y-2333345D01*
X-2006346Y-2332990D01*
X-2009902Y-2310130D01*
X-2019300Y-2310130D01*
X-2019300Y-2380488D01*
X-2009902Y-2380488D01*
X-2006346Y-2359152D01*
X-1980488Y-2358796D01*
X-1926082Y-2358644D01*
X-1916531Y-2358339D01*
X-1907997Y-2357526D01*
X-1900428Y-2356154D01*
X-1893773Y-2354173D01*
X-1887982Y-2351684D01*
X-1883105Y-2348687D01*
X-1879041Y-2345080D01*
X-1875789Y-2341016D01*
X-1873300Y-2336342D01*
X-1871573Y-2331161D01*
X-1870557Y-2325471D01*
X-1870202Y-2319274D01*
X-1870456Y-2314295D01*
X-1871116Y-2309317D01*
X-1872234Y-2304338D01*
X-1873808Y-2299411D01*
X-1875739Y-2294534D01*
X-1878075Y-2289708D01*
X-1880768Y-2284984D01*
X-1883765Y-2280361D01*
X-1887118Y-2275890D01*
X-1890775Y-2271522D01*
X-1894687Y-2267356D01*
X-1898904Y-2263394D01*
X-1838706Y-2263394D01*
X-1795272Y-2264156D01*
X-1792986Y-2260346D01*
X-1805939Y-2213864D01*
G37*
G36*
X-1924050Y-2478786D02*
G01*
X-1993392Y-2598166D01*
X-1980184Y-2606040D01*
X-1918207Y-2496058D01*
X-1856486Y-2606040D01*
X-1843278Y-2598166D01*
X-1912620Y-2478786D01*
G37*
G36*
X-1980692Y-2637282D02*
G01*
X-1987753Y-2639009D01*
X-1994154Y-2641447D01*
X-1999843Y-2644546D01*
X-2004872Y-2648204D01*
X-2009292Y-2652471D01*
X-2013051Y-2657297D01*
X-2016201Y-2662631D01*
X-2018741Y-2668422D01*
X-2020671Y-2674721D01*
X-2022043Y-2681427D01*
X-2022856Y-2688488D01*
X-2023110Y-2695956D01*
X-2022805Y-2703474D01*
X-2021992Y-2710637D01*
X-2020620Y-2717444D01*
X-2018792Y-2723896D01*
X-2016455Y-2729941D01*
X-2013610Y-2735529D01*
X-2010359Y-2740710D01*
X-2006701Y-2745435D01*
X-2002688Y-2749702D01*
X-1998268Y-2753461D01*
X-1993493Y-2756662D01*
X-1988413Y-2759354D01*
X-1982978Y-2761488D01*
X-1977288Y-2763012D01*
X-1971395Y-2763977D01*
X-1965198Y-2764282D01*
X-1958492Y-2763977D01*
X-1952091Y-2762961D01*
X-1946046Y-2761335D01*
X-1940407Y-2758998D01*
X-1935124Y-2756001D01*
X-1930247Y-2752293D01*
X-1925828Y-2747873D01*
X-1921865Y-2742742D01*
X-1918360Y-2736850D01*
X-1915414Y-2730246D01*
X-1912975Y-2722880D01*
X-1911096Y-2714752D01*
X-1908708Y-2721457D01*
X-1905965Y-2727655D01*
X-1902815Y-2733294D01*
X-1899259Y-2738374D01*
X-1895398Y-2742895D01*
X-1891233Y-2746806D01*
X-1886712Y-2750159D01*
X-1881936Y-2752953D01*
X-1876856Y-2755138D01*
X-1871573Y-2756662D01*
X-1866036Y-2757627D01*
X-1860296Y-2757932D01*
X-1854809Y-2757678D01*
X-1849526Y-2756916D01*
X-1844548Y-2755646D01*
X-1839823Y-2753868D01*
X-1835404Y-2751683D01*
X-1831289Y-2748991D01*
X-1827479Y-2745841D01*
X-1824024Y-2742285D01*
X-1820925Y-2738323D01*
X-1818182Y-2733954D01*
X-1815846Y-2729230D01*
X-1813864Y-2724048D01*
X-1812289Y-2718562D01*
X-1811172Y-2712720D01*
X-1810512Y-2706522D01*
X-1810257Y-2700020D01*
X-1810512Y-2693060D01*
X-1811324Y-2686405D01*
X-1812696Y-2680004D01*
X-1814575Y-2673908D01*
X-1817065Y-2668219D01*
X-1820011Y-2662986D01*
X-1823567Y-2658160D01*
X-1827682Y-2653893D01*
X-1832356Y-2650185D01*
X-1837537Y-2647086D01*
X-1843328Y-2644648D01*
X-1849628Y-2642870D01*
X-1854606Y-2645359D01*
X-1857908Y-2648661D01*
X-1859737Y-2652572D01*
X-1860296Y-2657094D01*
X-1859178Y-2663494D01*
X-1855774Y-2668219D01*
X-1850034Y-2671673D01*
X-1841754Y-2674366D01*
X-1823974Y-2679446D01*
X-1822602Y-2687370D01*
X-1822196Y-2694178D01*
X-1822500Y-2700020D01*
X-1823364Y-2705354D01*
X-1824837Y-2710332D01*
X-1826818Y-2714802D01*
X-1829358Y-2718765D01*
X-1832457Y-2722270D01*
X-1836115Y-2725267D01*
X-1840280Y-2727756D01*
X-1844903Y-2729738D01*
X-1850085Y-2731109D01*
X-1855724Y-2731973D01*
X-1861820Y-2732278D01*
X-1868373Y-2731922D01*
X-1874418Y-2730855D01*
X-1879955Y-2729128D01*
X-1884984Y-2726791D01*
X-1889455Y-2723794D01*
X-1893366Y-2720238D01*
X-1896719Y-2716072D01*
X-1899462Y-2711348D01*
X-1901647Y-2706116D01*
X-1903222Y-2700426D01*
X-1904187Y-2694228D01*
X-1904492Y-2687574D01*
X-1904492Y-2675636D01*
X-1918207Y-2675636D01*
X-1918207Y-2690114D01*
X-1918563Y-2697683D01*
X-1919681Y-2704592D01*
X-1921408Y-2710840D01*
X-1923846Y-2716428D01*
X-1926945Y-2721356D01*
X-1930654Y-2725674D01*
X-1934972Y-2729331D01*
X-1939798Y-2732278D01*
X-1945233Y-2734614D01*
X-1951126Y-2736291D01*
X-1957527Y-2737256D01*
X-1964436Y-2737612D01*
X-1971192Y-2737256D01*
X-1977542Y-2736240D01*
X-1983435Y-2734513D01*
X-1988921Y-2732176D01*
X-1993900Y-2729179D01*
X-1998319Y-2725572D01*
X-2002180Y-2721305D01*
X-2005380Y-2716479D01*
X-2007971Y-2711043D01*
X-2009851Y-2705049D01*
X-2011019Y-2698496D01*
X-2011425Y-2691384D01*
X-2010968Y-2682798D01*
X-2010257Y-2678379D01*
X-2009139Y-2673858D01*
X-1982063Y-2666034D01*
X-1975815Y-2662682D01*
X-1972208Y-2658211D01*
X-1971039Y-2652014D01*
X-1971598Y-2647492D01*
X-1973376Y-2643479D01*
X-1976374Y-2640076D01*
G37*
G36*
X-1815084Y-2857246D02*
G01*
X-1817624Y-2882138D01*
X-1966874Y-2882036D01*
X-2006346Y-2881376D01*
X-2009902Y-2858516D01*
X-2019300Y-2858516D01*
X-2022348Y-2903982D01*
X-2001520Y-2906522D01*
X-2007311Y-2911754D01*
X-2012086Y-2917088D01*
X-2015845Y-2922524D01*
X-2018690Y-2928010D01*
X-2020773Y-2933496D01*
X-2022144Y-2938983D01*
X-2022816Y-2944114D01*
X-2007616Y-2944114D01*
X-2007362Y-2939694D01*
X-2006650Y-2935173D01*
X-2005482Y-2930601D01*
X-2003704Y-2925978D01*
X-2001418Y-2921304D01*
X-1998522Y-2916631D01*
X-1995017Y-2911957D01*
X-1990852Y-2907284D01*
X-1902968Y-2907284D01*
X-1897837Y-2913329D01*
X-1893824Y-2918968D01*
X-1890725Y-2924149D01*
X-1888489Y-2928975D01*
X-1886966Y-2933446D01*
X-1886051Y-2937611D01*
X-1885594Y-2941472D01*
X-1885442Y-2945130D01*
X-1885696Y-2949498D01*
X-1886407Y-2953664D01*
X-1887677Y-2957626D01*
X-1889353Y-2961386D01*
X-1891588Y-2964942D01*
X-1894281Y-2968294D01*
X-1897430Y-2971342D01*
X-1901088Y-2974187D01*
X-1905203Y-2976727D01*
X-1909825Y-2978962D01*
X-1914906Y-2980893D01*
X-1920493Y-2982518D01*
X-1926488Y-2983788D01*
X-1932990Y-2984754D01*
X-1940001Y-2985312D01*
X-1947418Y-2985516D01*
X-1955190Y-2985312D01*
X-1962353Y-2984652D01*
X-1968906Y-2983585D01*
X-1974951Y-2982112D01*
X-1980387Y-2980334D01*
X-1985314Y-2978200D01*
X-1989734Y-2975711D01*
X-1993595Y-2973019D01*
X-1996998Y-2970022D01*
X-1999894Y-2966821D01*
X-2002282Y-2963418D01*
X-2004263Y-2959811D01*
X-2005736Y-2956052D01*
X-2006803Y-2952140D01*
X-2007412Y-2948178D01*
X-2007616Y-2944114D01*
X-2022816Y-2944114D01*
X-2023110Y-2949702D01*
X-2022856Y-2955137D01*
X-2022195Y-2960420D01*
X-2021027Y-2965450D01*
X-2019452Y-2970326D01*
X-2017420Y-2975000D01*
X-2015032Y-2979420D01*
X-2012188Y-2983636D01*
X-2008987Y-2987598D01*
X-2005431Y-2991307D01*
X-2001469Y-2994761D01*
X-1997202Y-2997911D01*
X-1992630Y-3000806D01*
X-1987702Y-3003397D01*
X-1982470Y-3005632D01*
X-1976932Y-3007614D01*
X-1971141Y-3009239D01*
X-1965045Y-3010509D01*
X-1958746Y-3011424D01*
X-1952193Y-3011982D01*
X-1945386Y-3012186D01*
X-1938426Y-3011982D01*
X-1931822Y-3011424D01*
X-1925472Y-3010509D01*
X-1919427Y-3009290D01*
X-1913686Y-3007715D01*
X-1908302Y-3005785D01*
X-1903222Y-3003600D01*
X-1898497Y-3001111D01*
X-1894128Y-2998368D01*
X-1890064Y-2995371D01*
X-1886407Y-2992069D01*
X-1883054Y-2988614D01*
X-1880107Y-2984855D01*
X-1877517Y-2980944D01*
X-1875282Y-2976829D01*
X-1873504Y-2972511D01*
X-1872081Y-2968040D01*
X-1871014Y-2963418D01*
X-1870405Y-2958642D01*
X-1870202Y-2953766D01*
X-1870506Y-2947670D01*
X-1871522Y-2941574D01*
X-1873199Y-2935579D01*
X-1875637Y-2929585D01*
X-1878787Y-2923641D01*
X-1882749Y-2917850D01*
X-1887474Y-2912110D01*
X-1893062Y-2906522D01*
X-1838706Y-2906522D01*
X-1795272Y-2907538D01*
X-1792986Y-2903474D01*
X-1805939Y-2857246D01*
G37*
G36*
X-2076196Y-3022600D02*
G01*
X-2080361Y-3023158D01*
X-2084120Y-3024835D01*
X-2087422Y-3027375D01*
X-2090216Y-3030778D01*
X-2092452Y-3034893D01*
X-2094128Y-3039516D01*
X-2095144Y-3044647D01*
X-2095500Y-3050032D01*
X-2095246Y-3054197D01*
X-2094534Y-3058261D01*
X-2093264Y-3062325D01*
X-2091486Y-3066288D01*
X-2089099Y-3070199D01*
X-2086203Y-3074060D01*
X-2082749Y-3077921D01*
X-2078634Y-3081731D01*
X-2073960Y-3085490D01*
X-2068575Y-3089249D01*
X-2062632Y-3092958D01*
X-2055977Y-3096666D01*
X-2048611Y-3100374D01*
X-2040585Y-3104083D01*
X-2031847Y-3107791D01*
X-1886712Y-3162808D01*
X-1883664Y-3179826D01*
X-1874266Y-3179826D01*
X-1874266Y-3120644D01*
X-1883664Y-3120644D01*
X-1886966Y-3148330D01*
X-1995678Y-3109722D01*
X-1886712Y-3069590D01*
X-1883664Y-3096006D01*
X-1874266Y-3096006D01*
X-1874266Y-3023362D01*
X-1883664Y-3023362D01*
X-1885950Y-3040634D01*
X-2028189Y-3097784D01*
X-2031492Y-3096260D01*
X-2038350Y-3093567D01*
X-2044954Y-3090672D01*
X-2051304Y-3087522D01*
X-2057298Y-3084118D01*
X-2062937Y-3080359D01*
X-2068169Y-3076244D01*
X-2072944Y-3071723D01*
X-2077212Y-3066796D01*
X-2074925Y-3064510D01*
X-2069947Y-3058820D01*
X-2066493Y-3053537D01*
X-2064410Y-3048152D01*
X-2063750Y-3042158D01*
X-2064461Y-3035655D01*
X-2066747Y-3029813D01*
X-2070607Y-3025241D01*
G37*
G36*
X-2590800Y-1247648D02*
G01*
X-2590800Y-1340612D01*
X-2576322Y-1340612D01*
X-2570988Y-1299972D01*
X-2498344Y-1323848D01*
X-2498344Y-1329182D01*
X-2481834Y-1329182D01*
X-2352294Y-1371854D01*
X-2481834Y-1415288D01*
X-2481834Y-1329182D01*
X-2498344Y-1329182D01*
X-2498344Y-1420622D01*
X-2571496Y-1445006D01*
X-2576322Y-1403858D01*
X-2590800Y-1403858D01*
X-2590800Y-1517396D01*
X-2576322Y-1517396D01*
X-2572512Y-1484630D01*
X-2309622Y-1394714D01*
X-2309622Y-1370330D01*
X-2570988Y-1281430D01*
X-2576322Y-1247648D01*
G37*
G36*
X-2590800Y-1534160D02*
G01*
X-2590800Y-1632712D01*
X-2576322Y-1632712D01*
X-2570480Y-1588262D01*
X-2359406Y-1587500D01*
X-2593594Y-1757680D01*
X-2593594Y-1772666D01*
X-2330958Y-1772920D01*
X-2325878Y-1807972D01*
X-2311654Y-1807972D01*
X-2311654Y-1709420D01*
X-2325878Y-1709420D01*
X-2331212Y-1753870D01*
X-2525014Y-1754886D01*
X-2311654Y-1600454D01*
X-2311654Y-1535938D01*
X-2325878Y-1535938D01*
X-2329688Y-1565656D01*
X-2335022Y-1569974D01*
X-2571496Y-1569212D01*
X-2576322Y-1534160D01*
G37*
G36*
X-2590800Y-1839722D02*
G01*
X-2590800Y-1957070D01*
X-2576322Y-1957070D01*
X-2571750Y-1918207D01*
X-2537409Y-1917700D01*
X-2502916Y-1917496D01*
X-2392172Y-1917496D01*
X-2357526Y-1917750D01*
X-2330196Y-1918207D01*
X-2325878Y-1957070D01*
X-2311654Y-1957070D01*
X-2311654Y-1839722D01*
X-2325878Y-1839722D01*
X-2330196Y-1878584D01*
X-2378456Y-1879193D01*
X-2496413Y-1879346D01*
X-2572004Y-1878584D01*
X-2576322Y-1839722D01*
G37*
G36*
X-2590800Y-1994407D02*
G01*
X-2590800Y-2111756D01*
X-2576322Y-2111756D01*
X-2571750Y-2072893D01*
X-2537917Y-2072386D01*
X-2503322Y-2072182D01*
X-2378303Y-2072233D01*
X-2327910Y-2072893D01*
X-2327910Y-2108962D01*
X-2328164Y-2116937D01*
X-2328875Y-2124303D01*
X-2330043Y-2131161D01*
X-2331669Y-2137460D01*
X-2333752Y-2143201D01*
X-2336292Y-2148433D01*
X-2339289Y-2153158D01*
X-2342692Y-2157323D01*
X-2346502Y-2160981D01*
X-2350719Y-2164130D01*
X-2355342Y-2166772D01*
X-2360371Y-2168956D01*
X-2365806Y-2170582D01*
X-2371598Y-2171801D01*
X-2377744Y-2172462D01*
X-2384298Y-2172716D01*
X-2390698Y-2172462D01*
X-2396896Y-2171700D01*
X-2402789Y-2170379D01*
X-2408377Y-2168550D01*
X-2413660Y-2166213D01*
X-2418638Y-2163368D01*
X-2423210Y-2159965D01*
X-2427427Y-2156053D01*
X-2431237Y-2151634D01*
X-2434640Y-2146706D01*
X-2437536Y-2141220D01*
X-2439974Y-2135225D01*
X-2441905Y-2128672D01*
X-2443327Y-2121611D01*
X-2444191Y-2114042D01*
X-2444496Y-2105914D01*
X-2444496Y-2072132D01*
X-2460498Y-2072132D01*
X-2460650Y-2102510D01*
X-2461209Y-2109927D01*
X-2462225Y-2116632D01*
X-2463749Y-2122576D01*
X-2465832Y-2127859D01*
X-2468575Y-2132533D01*
X-2472029Y-2136698D01*
X-2476246Y-2140305D01*
X-2481275Y-2143506D01*
X-2487269Y-2146249D01*
X-2494178Y-2148738D01*
X-2568194Y-2168144D01*
X-2574950Y-2170226D01*
X-2580589Y-2173020D01*
X-2585212Y-2176678D01*
X-2588869Y-2181199D01*
X-2591562Y-2186787D01*
X-2593441Y-2193442D01*
X-2594508Y-2201265D01*
X-2594864Y-2210308D01*
X-2594610Y-2219604D01*
X-2593898Y-2227986D01*
X-2592628Y-2235504D01*
X-2590800Y-2242058D01*
X-2576322Y-2242058D01*
X-2573274Y-2209546D01*
X-2507742Y-2190242D01*
X-2500071Y-2187803D01*
X-2493162Y-2185111D01*
X-2486863Y-2182164D01*
X-2481173Y-2178964D01*
X-2476144Y-2175459D01*
X-2471623Y-2171598D01*
X-2467711Y-2167382D01*
X-2464257Y-2162810D01*
X-2461361Y-2157831D01*
X-2458872Y-2152446D01*
X-2456789Y-2146554D01*
X-2455164Y-2140204D01*
X-2453741Y-2147214D01*
X-2452065Y-2153818D01*
X-2450033Y-2160117D01*
X-2447798Y-2166010D01*
X-2445258Y-2171598D01*
X-2442464Y-2176780D01*
X-2439466Y-2181656D01*
X-2436215Y-2186127D01*
X-2432761Y-2190292D01*
X-2429103Y-2194052D01*
X-2425293Y-2197455D01*
X-2421331Y-2200554D01*
X-2417165Y-2203246D01*
X-2412847Y-2205583D01*
X-2408428Y-2207564D01*
X-2403906Y-2209190D01*
X-2399233Y-2210460D01*
X-2394508Y-2211374D01*
X-2389682Y-2211882D01*
X-2384806Y-2212086D01*
X-2379116Y-2211882D01*
X-2373680Y-2211324D01*
X-2368397Y-2210358D01*
X-2363317Y-2208987D01*
X-2358491Y-2207310D01*
X-2353868Y-2205228D01*
X-2349449Y-2202789D01*
X-2345283Y-2199995D01*
X-2341321Y-2196846D01*
X-2337612Y-2193391D01*
X-2334158Y-2189581D01*
X-2330907Y-2185416D01*
X-2327910Y-2180945D01*
X-2325116Y-2176119D01*
X-2322626Y-2170988D01*
X-2320340Y-2165553D01*
X-2318359Y-2159812D01*
X-2316581Y-2153818D01*
X-2315108Y-2147468D01*
X-2313838Y-2140813D01*
X-2312212Y-2126691D01*
X-2311806Y-2119223D01*
X-2311654Y-2111502D01*
X-2311654Y-1994407D01*
X-2325878Y-1994407D01*
X-2330196Y-2033270D01*
X-2378456Y-2033879D01*
X-2496413Y-2034032D01*
X-2572004Y-2033270D01*
X-2576322Y-1994407D01*
G37*
G36*
X-2325878Y-2250694D02*
G01*
X-2329688Y-2285746D01*
X-2399030Y-2286203D01*
X-2491943Y-2286355D01*
X-2499004Y-2286711D01*
X-2512263Y-2288133D01*
X-2524506Y-2290470D01*
X-2530246Y-2291943D01*
X-2535732Y-2293620D01*
X-2545892Y-2297633D01*
X-2555087Y-2302459D01*
X-2559304Y-2305151D01*
X-2563317Y-2308047D01*
X-2567076Y-2311146D01*
X-2573883Y-2317800D01*
X-2576931Y-2321407D01*
X-2582316Y-2329129D01*
X-2586888Y-2337511D01*
X-2590546Y-2346452D01*
X-2592070Y-2351176D01*
X-2594457Y-2361031D01*
X-2596032Y-2371394D01*
X-2596794Y-2382266D01*
X-2596794Y-2393188D01*
X-2595981Y-2403602D01*
X-2594356Y-2413508D01*
X-2593238Y-2418334D01*
X-2590342Y-2427478D01*
X-2586532Y-2436164D01*
X-2581757Y-2444191D01*
X-2579065Y-2448001D01*
X-2572867Y-2455164D01*
X-2569413Y-2458516D01*
X-2561793Y-2464663D01*
X-2557576Y-2467457D01*
X-2553055Y-2470099D01*
X-2548331Y-2472537D01*
X-2543352Y-2474772D01*
X-2532481Y-2478684D01*
X-2526639Y-2480360D01*
X-2514142Y-2483053D01*
X-2507488Y-2484069D01*
X-2493213Y-2485440D01*
X-2485644Y-2485796D01*
X-2330958Y-2486152D01*
X-2325878Y-2523744D01*
X-2311654Y-2523744D01*
X-2311654Y-2423668D01*
X-2325878Y-2423668D01*
X-2331720Y-2467610D01*
X-2476906Y-2467762D01*
X-2485491Y-2467356D01*
X-2501290Y-2465832D01*
X-2508453Y-2464663D01*
X-2515209Y-2463292D01*
X-2521508Y-2461615D01*
X-2527401Y-2459736D01*
X-2532888Y-2457602D01*
X-2537917Y-2455164D01*
X-2542590Y-2452522D01*
X-2546807Y-2449576D01*
X-2550668Y-2446426D01*
X-2554173Y-2442972D01*
X-2557272Y-2439263D01*
X-2560015Y-2435352D01*
X-2562453Y-2431186D01*
X-2564485Y-2426716D01*
X-2566212Y-2422042D01*
X-2567584Y-2417064D01*
X-2568651Y-2411831D01*
X-2569362Y-2406396D01*
X-2569819Y-2400706D01*
X-2569870Y-2389428D01*
X-2569464Y-2384298D01*
X-2568803Y-2379370D01*
X-2567889Y-2374595D01*
X-2566720Y-2370023D01*
X-2565196Y-2365603D01*
X-2563368Y-2361387D01*
X-2561285Y-2357374D01*
X-2558796Y-2353564D01*
X-2556002Y-2350008D01*
X-2552852Y-2346604D01*
X-2549347Y-2343454D01*
X-2545435Y-2340508D01*
X-2541168Y-2337765D01*
X-2536494Y-2335276D01*
X-2531414Y-2333040D01*
X-2525928Y-2331059D01*
X-2520035Y-2329332D01*
X-2513685Y-2327808D01*
X-2506878Y-2326589D01*
X-2499614Y-2325624D01*
X-2491892Y-2324912D01*
X-2483662Y-2324506D01*
X-2474976Y-2324354D01*
X-2385212Y-2324455D01*
X-2330704Y-2325116D01*
X-2325878Y-2367280D01*
X-2311654Y-2367280D01*
X-2311654Y-2250694D01*
G37*
G36*
X-2590800Y-2548636D02*
G01*
X-2590800Y-2659888D01*
X-2574036Y-2659888D01*
X-2574036Y-2627122D01*
X-2545689Y-2626664D01*
X-2510891Y-2626410D01*
X-2398471Y-2626410D01*
X-2327910Y-2627122D01*
X-2328011Y-2669286D01*
X-2329027Y-2680512D01*
X-2329891Y-2685846D01*
X-2331008Y-2691028D01*
X-2332380Y-2696057D01*
X-2334006Y-2700934D01*
X-2337968Y-2710129D01*
X-2340305Y-2714447D01*
X-2342896Y-2718612D01*
X-2348788Y-2726385D01*
X-2352090Y-2729992D01*
X-2355646Y-2733446D01*
X-2359456Y-2736697D01*
X-2367686Y-2742641D01*
X-2372207Y-2745333D01*
X-2381859Y-2750159D01*
X-2392476Y-2754172D01*
X-2403957Y-2757474D01*
X-2416403Y-2759913D01*
X-2429713Y-2761589D01*
X-2443937Y-2762402D01*
X-2458516Y-2762402D01*
X-2465476Y-2762097D01*
X-2478786Y-2760827D01*
X-2485186Y-2759913D01*
X-2497328Y-2757424D01*
X-2508656Y-2754122D01*
X-2519172Y-2750007D01*
X-2524099Y-2747670D01*
X-2533345Y-2742336D01*
X-2537612Y-2739390D01*
X-2541676Y-2736240D01*
X-2549093Y-2729382D01*
X-2555595Y-2721711D01*
X-2558491Y-2717596D01*
X-2563571Y-2708808D01*
X-2567635Y-2699207D01*
X-2569311Y-2694178D01*
X-2571953Y-2683459D01*
X-2572867Y-2677871D01*
X-2573528Y-2672029D01*
X-2574036Y-2659888D01*
X-2590800Y-2659888D01*
X-2590444Y-2674975D01*
X-2589326Y-2686862D01*
X-2587447Y-2698394D01*
X-2586278Y-2703982D01*
X-2583332Y-2714853D01*
X-2579674Y-2725216D01*
X-2575306Y-2735122D01*
X-2570276Y-2744520D01*
X-2564485Y-2753309D01*
X-2558084Y-2761589D01*
X-2550972Y-2769209D01*
X-2543200Y-2776169D01*
X-2534767Y-2782519D01*
X-2525674Y-2788158D01*
X-2515971Y-2793034D01*
X-2505608Y-2797200D01*
X-2500172Y-2799029D01*
X-2488895Y-2801975D01*
X-2483002Y-2803194D01*
X-2470810Y-2804922D01*
X-2458008Y-2805836D01*
X-2444699Y-2805836D01*
X-2431796Y-2805023D01*
X-2419553Y-2803448D01*
X-2407869Y-2801061D01*
X-2396845Y-2797962D01*
X-2386482Y-2794152D01*
X-2381504Y-2791968D01*
X-2372106Y-2787091D01*
X-2363317Y-2781554D01*
X-2355240Y-2775356D01*
X-2347772Y-2768498D01*
X-2341016Y-2761081D01*
X-2334920Y-2753055D01*
X-2329535Y-2744470D01*
X-2324811Y-2735326D01*
X-2320848Y-2725674D01*
X-2317546Y-2715514D01*
X-2315006Y-2704896D01*
X-2313127Y-2693771D01*
X-2312009Y-2682240D01*
X-2311654Y-2670302D01*
X-2311654Y-2548636D01*
X-2325878Y-2548636D01*
X-2330196Y-2587498D01*
X-2357780Y-2587955D01*
X-2385517Y-2588158D01*
X-2521864Y-2588158D01*
X-2572004Y-2587498D01*
X-2576322Y-2548636D01*
G37*
G36*
X-2590800Y-2832862D02*
G01*
X-2590800Y-2949956D01*
X-2576322Y-2949956D01*
X-2572004Y-2911348D01*
X-2510688Y-2910636D01*
X-2455926Y-2910586D01*
X-2455926Y-3046730D01*
X-2544978Y-3046425D01*
X-2572004Y-3045968D01*
X-2576322Y-3007360D01*
X-2590800Y-3007360D01*
X-2590800Y-3124454D01*
X-2576322Y-3124454D01*
X-2572004Y-3085592D01*
X-2516784Y-3084931D01*
X-2406192Y-3084830D01*
X-2330196Y-3085592D01*
X-2325878Y-3124454D01*
X-2311654Y-3124454D01*
X-2311654Y-3007360D01*
X-2325878Y-3007360D01*
X-2330196Y-3045968D01*
X-2357374Y-3046425D01*
X-2405329Y-3046730D01*
X-2439670Y-3046730D01*
X-2439670Y-2910586D01*
X-2384450Y-2910687D01*
X-2330196Y-2911348D01*
X-2325878Y-2949956D01*
X-2311654Y-2949956D01*
X-2311654Y-2832862D01*
X-2325878Y-2832862D01*
X-2330196Y-2871724D01*
X-2378456Y-2872333D01*
X-2496413Y-2872486D01*
X-2572004Y-2871724D01*
X-2576322Y-2832862D01*
G37*
G36*
X-2574798Y-3258565D02*
G01*
X-2577795Y-3263544D01*
X-2580690Y-3268979D01*
X-2583383Y-3274822D01*
X-2588310Y-3287572D01*
X-2590393Y-3294430D01*
X-2592273Y-3301542D01*
X-2593898Y-3308908D01*
X-2595168Y-3316427D01*
X-2596083Y-3324148D01*
X-2596692Y-3331921D01*
X-2596896Y-3339846D01*
X-2596743Y-3346958D01*
X-2596286Y-3353917D01*
X-2595524Y-3360623D01*
X-2594457Y-3367125D01*
X-2593136Y-3373475D01*
X-2589580Y-3385362D01*
X-2587345Y-3390950D01*
X-2584856Y-3396284D01*
X-2582113Y-3401364D01*
X-2579116Y-3406140D01*
X-2575864Y-3410610D01*
X-2572308Y-3414826D01*
X-2568549Y-3418687D01*
X-2564485Y-3422243D01*
X-2560218Y-3425494D01*
X-2555697Y-3428339D01*
X-2550922Y-3430879D01*
X-2545943Y-3433064D01*
X-2540711Y-3434842D01*
X-2535275Y-3436264D01*
X-2529636Y-3437331D01*
X-2523744Y-3437940D01*
X-2517648Y-3438144D01*
X-2511856Y-3437991D01*
X-2506319Y-3437534D01*
X-2500985Y-3436721D01*
X-2495854Y-3435553D01*
X-2490927Y-3434079D01*
X-2486202Y-3432200D01*
X-2481630Y-3429965D01*
X-2477211Y-3427323D01*
X-2472994Y-3424326D01*
X-2468880Y-3420922D01*
X-2464917Y-3417062D01*
X-2461056Y-3412794D01*
X-2457297Y-3408070D01*
X-2453640Y-3402939D01*
X-2450084Y-3397300D01*
X-2446578Y-3391204D01*
X-2443124Y-3384651D01*
X-2439720Y-3377590D01*
X-2433066Y-3361944D01*
X-2423464Y-3337915D01*
X-2420213Y-3331210D01*
X-2416810Y-3325063D01*
X-2413101Y-3319475D01*
X-2409139Y-3314547D01*
X-2404922Y-3310229D01*
X-2400350Y-3306521D01*
X-2395474Y-3303473D01*
X-2390190Y-3301085D01*
X-2384602Y-3299358D01*
X-2378557Y-3298291D01*
X-2372106Y-3297936D01*
X-2366264Y-3298240D01*
X-2360828Y-3299053D01*
X-2355697Y-3300425D01*
X-2350973Y-3302304D01*
X-2346604Y-3304692D01*
X-2342591Y-3307486D01*
X-2338984Y-3310788D01*
X-2335733Y-3314446D01*
X-2332837Y-3318510D01*
X-2330348Y-3322980D01*
X-2328214Y-3327755D01*
X-2326436Y-3332886D01*
X-2325116Y-3338271D01*
X-2324100Y-3343960D01*
X-2323541Y-3349904D01*
X-2323338Y-3356101D01*
X-2323795Y-3365398D01*
X-2325217Y-3373983D01*
X-2327859Y-3382162D01*
X-2331720Y-3390137D01*
X-2381504Y-3400806D01*
X-2381504Y-3422396D01*
X-2327148Y-3425190D01*
X-2320848Y-3415741D01*
X-2318004Y-3410712D01*
X-2315413Y-3405530D01*
X-2313127Y-3400145D01*
X-2311044Y-3394557D01*
X-2309266Y-3388817D01*
X-2307793Y-3382772D01*
X-2306624Y-3376523D01*
X-2305761Y-3370072D01*
X-2305202Y-3363315D01*
X-2305050Y-3356356D01*
X-2305202Y-3349853D01*
X-2305608Y-3343503D01*
X-2306370Y-3337255D01*
X-2307386Y-3331210D01*
X-2308656Y-3325368D01*
X-2310231Y-3319678D01*
X-2312060Y-3314192D01*
X-2314143Y-3308959D01*
X-2316530Y-3303930D01*
X-2319121Y-3299104D01*
X-2322017Y-3294583D01*
X-2325166Y-3290265D01*
X-2328570Y-3286251D01*
X-2332228Y-3282543D01*
X-2336088Y-3279140D01*
X-2340254Y-3275990D01*
X-2344623Y-3273196D01*
X-2349195Y-3270758D01*
X-2354021Y-3268624D01*
X-2359101Y-3266846D01*
X-2364384Y-3265474D01*
X-2369870Y-3264458D01*
X-2375560Y-3263849D01*
X-2381504Y-3263646D01*
X-2387650Y-3263849D01*
X-2393543Y-3264509D01*
X-2399182Y-3265525D01*
X-2404618Y-3266948D01*
X-2409799Y-3268776D01*
X-2414727Y-3270961D01*
X-2419451Y-3273501D01*
X-2423972Y-3276447D01*
X-2428290Y-3279698D01*
X-2432405Y-3283305D01*
X-2436368Y-3287217D01*
X-2440178Y-3291484D01*
X-2443784Y-3296005D01*
X-2447188Y-3300831D01*
X-2453690Y-3311398D01*
X-2459583Y-3322980D01*
X-2465070Y-3335528D01*
X-2475128Y-3359962D01*
X-2478836Y-3367989D01*
X-2482545Y-3375151D01*
X-2486355Y-3381451D01*
X-2490266Y-3386886D01*
X-2494432Y-3391560D01*
X-2498801Y-3395421D01*
X-2503474Y-3398520D01*
X-2508554Y-3400907D01*
X-2514041Y-3402533D01*
X-2520035Y-3403549D01*
X-2526538Y-3403854D01*
X-2532684Y-3403549D01*
X-2538476Y-3402634D01*
X-2543911Y-3401161D01*
X-2548940Y-3399078D01*
X-2553563Y-3396487D01*
X-2557881Y-3393389D01*
X-2561742Y-3389731D01*
X-2565247Y-3385616D01*
X-2568346Y-3380994D01*
X-2571038Y-3375914D01*
X-2573324Y-3370427D01*
X-2575204Y-3364534D01*
X-2576677Y-3358235D01*
X-2577744Y-3351529D01*
X-2578404Y-3344468D01*
X-2578608Y-3337051D01*
X-2578455Y-3330600D01*
X-2577998Y-3324606D01*
X-2577236Y-3318916D01*
X-2576169Y-3313480D01*
X-2574747Y-3308299D01*
X-2572918Y-3303270D01*
X-2570734Y-3298291D01*
X-2568194Y-3293364D01*
X-2516124Y-3282696D01*
X-2516124Y-3261106D01*
G37*
G36*
X-2590800Y-3450336D02*
G01*
X-2590800Y-3543300D01*
X-2576322Y-3543300D01*
X-2570988Y-3502406D01*
X-2498344Y-3526536D01*
X-2498344Y-3531870D01*
X-2481834Y-3531870D01*
X-2352294Y-3574542D01*
X-2481834Y-3617722D01*
X-2481834Y-3531870D01*
X-2498344Y-3531870D01*
X-2498344Y-3623056D01*
X-2571496Y-3647694D01*
X-2576322Y-3606546D01*
X-2590800Y-3606546D01*
X-2590800Y-3719829D01*
X-2576322Y-3719829D01*
X-2572512Y-3687064D01*
X-2309622Y-3597401D01*
X-2309622Y-3572764D01*
X-2570988Y-3484118D01*
X-2576322Y-3450336D01*
G37*
G36*
X-2590800Y-3738879D02*
G01*
X-2590800Y-3855974D01*
X-2576322Y-3855974D01*
X-2572004Y-3817365D01*
X-2510688Y-3816654D01*
X-2455926Y-3816604D01*
X-2455926Y-3952748D01*
X-2544978Y-3952443D01*
X-2572004Y-3951986D01*
X-2576322Y-3913378D01*
X-2590800Y-3913378D01*
X-2590800Y-4030472D01*
X-2576322Y-4030472D01*
X-2572004Y-3991610D01*
X-2516784Y-3990949D01*
X-2406192Y-3990848D01*
X-2330196Y-3991610D01*
X-2325878Y-4030472D01*
X-2311654Y-4030472D01*
X-2311654Y-3913378D01*
X-2325878Y-3913378D01*
X-2330196Y-3951986D01*
X-2357374Y-3952443D01*
X-2405329Y-3952748D01*
X-2439670Y-3952748D01*
X-2439670Y-3816604D01*
X-2384450Y-3816705D01*
X-2330196Y-3817365D01*
X-2325878Y-3855974D01*
X-2311654Y-3855974D01*
X-2311654Y-3738879D01*
X-2325878Y-3738879D01*
X-2330196Y-3777742D01*
X-2378456Y-3778351D01*
X-2496413Y-3778504D01*
X-2572004Y-3777742D01*
X-2576322Y-3738879D01*
G37*
G36*
X-2325878Y-4065778D02*
G01*
X-2329688Y-4100829D01*
X-2399030Y-4101287D01*
X-2491943Y-4101439D01*
X-2499004Y-4101795D01*
X-2512263Y-4103217D01*
X-2524506Y-4105554D01*
X-2530246Y-4107027D01*
X-2535732Y-4108704D01*
X-2545892Y-4112717D01*
X-2555087Y-4117543D01*
X-2559304Y-4120235D01*
X-2563317Y-4123131D01*
X-2567076Y-4126229D01*
X-2573883Y-4132884D01*
X-2576931Y-4136491D01*
X-2582316Y-4144213D01*
X-2586888Y-4152595D01*
X-2590546Y-4161536D01*
X-2592070Y-4166260D01*
X-2594457Y-4176115D01*
X-2596032Y-4186478D01*
X-2596794Y-4197350D01*
X-2596794Y-4208272D01*
X-2595981Y-4218686D01*
X-2594356Y-4228592D01*
X-2593238Y-4233418D01*
X-2590342Y-4242562D01*
X-2586532Y-4251248D01*
X-2581757Y-4259275D01*
X-2579065Y-4263085D01*
X-2572867Y-4270248D01*
X-2569413Y-4273600D01*
X-2561793Y-4279747D01*
X-2557576Y-4282541D01*
X-2553055Y-4285183D01*
X-2548331Y-4287621D01*
X-2543352Y-4289856D01*
X-2532481Y-4293768D01*
X-2526639Y-4295444D01*
X-2514142Y-4298137D01*
X-2507488Y-4299153D01*
X-2493213Y-4300524D01*
X-2485644Y-4300880D01*
X-2330958Y-4301236D01*
X-2325878Y-4338828D01*
X-2311654Y-4338828D01*
X-2311654Y-4238752D01*
X-2325878Y-4238752D01*
X-2331720Y-4282694D01*
X-2467864Y-4283202D01*
X-2485491Y-4282694D01*
X-2501290Y-4281170D01*
X-2508453Y-4280001D01*
X-2515209Y-4278579D01*
X-2521508Y-4276902D01*
X-2527401Y-4275023D01*
X-2532888Y-4272838D01*
X-2537917Y-4270400D01*
X-2542590Y-4267708D01*
X-2546807Y-4264761D01*
X-2550668Y-4261612D01*
X-2554173Y-4258157D01*
X-2557272Y-4254449D01*
X-2560015Y-4250486D01*
X-2562453Y-4246321D01*
X-2564485Y-4241850D01*
X-2566212Y-4237126D01*
X-2567584Y-4232148D01*
X-2568651Y-4226966D01*
X-2569362Y-4221480D01*
X-2569819Y-4215790D01*
X-2569870Y-4204512D01*
X-2569464Y-4199382D01*
X-2568803Y-4194454D01*
X-2567889Y-4189679D01*
X-2566720Y-4185107D01*
X-2565196Y-4180687D01*
X-2563368Y-4176471D01*
X-2561285Y-4172458D01*
X-2558796Y-4168648D01*
X-2556002Y-4165092D01*
X-2552852Y-4161688D01*
X-2549347Y-4158538D01*
X-2545435Y-4155592D01*
X-2541168Y-4152849D01*
X-2536494Y-4150360D01*
X-2531414Y-4148124D01*
X-2525928Y-4146143D01*
X-2520035Y-4144416D01*
X-2513685Y-4142892D01*
X-2506878Y-4141673D01*
X-2499614Y-4140708D01*
X-2491892Y-4139996D01*
X-2483662Y-4139590D01*
X-2474976Y-4139437D01*
X-2385212Y-4139539D01*
X-2330704Y-4140200D01*
X-2325878Y-4182364D01*
X-2311654Y-4182364D01*
X-2311654Y-4065778D01*
G37*
G36*
X-2414270Y-4484878D02*
G01*
X-2419756Y-4485436D01*
X-2424938Y-4487113D01*
X-2429713Y-4489704D01*
X-2433878Y-4493158D01*
X-2437333Y-4497324D01*
X-2439974Y-4502150D01*
X-2441600Y-4507433D01*
X-2442210Y-4513072D01*
X-2441600Y-4518964D01*
X-2439974Y-4524400D01*
X-2437333Y-4529277D01*
X-2433878Y-4533544D01*
X-2429713Y-4536998D01*
X-2424938Y-4539589D01*
X-2419756Y-4541215D01*
X-2414270Y-4541774D01*
X-2408529Y-4541215D01*
X-2403094Y-4539589D01*
X-2398166Y-4536998D01*
X-2393899Y-4533544D01*
X-2390343Y-4529277D01*
X-2387600Y-4524400D01*
X-2385923Y-4518964D01*
X-2385314Y-4513072D01*
X-2385923Y-4507433D01*
X-2387600Y-4502150D01*
X-2390343Y-4497324D01*
X-2393899Y-4493158D01*
X-2398166Y-4489704D01*
X-2403094Y-4487113D01*
X-2408529Y-4485436D01*
G37*
G36*
X-2568194Y-4484878D02*
G01*
X-2573680Y-4485436D01*
X-2578862Y-4487113D01*
X-2583637Y-4489704D01*
X-2587802Y-4493158D01*
X-2591257Y-4497324D01*
X-2593898Y-4502150D01*
X-2595524Y-4507433D01*
X-2596134Y-4513072D01*
X-2595524Y-4518964D01*
X-2593898Y-4524400D01*
X-2591257Y-4529277D01*
X-2587802Y-4533544D01*
X-2583637Y-4536998D01*
X-2578862Y-4539589D01*
X-2573680Y-4541215D01*
X-2568194Y-4541774D01*
X-2562453Y-4541215D01*
X-2557018Y-4539589D01*
X-2552090Y-4536998D01*
X-2547823Y-4533544D01*
X-2544267Y-4529277D01*
X-2541524Y-4524400D01*
X-2539847Y-4518964D01*
X-2539238Y-4513072D01*
X-2539847Y-4507433D01*
X-2541524Y-4502150D01*
X-2544267Y-4497324D01*
X-2547823Y-4493158D01*
X-2552090Y-4489704D01*
X-2557018Y-4487113D01*
X-2562453Y-4485436D01*
G37*
G36*
X-2663952Y-4587494D02*
G01*
X-2670810Y-4596130D01*
X-2661513Y-4605629D01*
X-2652064Y-4614570D01*
X-2642412Y-4622952D01*
X-2632608Y-4630775D01*
X-2622651Y-4638090D01*
X-2612542Y-4644796D01*
X-2602230Y-4650994D01*
X-2591714Y-4656582D01*
X-2580995Y-4661712D01*
X-2570073Y-4666234D01*
X-2558948Y-4670247D01*
X-2547670Y-4673701D01*
X-2536088Y-4676648D01*
X-2524353Y-4679035D01*
X-2512364Y-4680864D01*
X-2500122Y-4682185D01*
X-2487676Y-4682998D01*
X-2474976Y-4683252D01*
X-2462174Y-4682998D01*
X-2449677Y-4682185D01*
X-2437434Y-4680864D01*
X-2425395Y-4679035D01*
X-2413609Y-4676648D01*
X-2402078Y-4673701D01*
X-2390749Y-4670247D01*
X-2379624Y-4666234D01*
X-2368753Y-4661712D01*
X-2358034Y-4656582D01*
X-2347569Y-4650994D01*
X-2337257Y-4644796D01*
X-2327097Y-4638090D01*
X-2317140Y-4630775D01*
X-2307336Y-4622952D01*
X-2297734Y-4614570D01*
X-2288235Y-4605629D01*
X-2278888Y-4596130D01*
X-2286000Y-4587494D01*
X-2299004Y-4596333D01*
X-2311603Y-4604410D01*
X-2323846Y-4611674D01*
X-2335733Y-4618278D01*
X-2347417Y-4624171D01*
X-2358898Y-4629404D01*
X-2370175Y-4633976D01*
X-2381453Y-4637989D01*
X-2392629Y-4641392D01*
X-2403906Y-4644237D01*
X-2415184Y-4646574D01*
X-2426665Y-4648454D01*
X-2438298Y-4649825D01*
X-2450185Y-4650790D01*
X-2462428Y-4651349D01*
X-2474976Y-4651502D01*
X-2487472Y-4651349D01*
X-2499664Y-4650790D01*
X-2511501Y-4649825D01*
X-2523083Y-4648454D01*
X-2534462Y-4646625D01*
X-2545740Y-4644288D01*
X-2556967Y-4641443D01*
X-2568143Y-4638090D01*
X-2579370Y-4634077D01*
X-2590698Y-4629505D01*
X-2602179Y-4624273D01*
X-2613863Y-4618380D01*
X-2625801Y-4611776D01*
X-2638145Y-4604461D01*
X-2650794Y-4596384D01*
G37*
D10*
X2661158Y-4712207D02*
G01*
X2661158Y-4878323D01*
X2578100Y-4795265D02*
G01*
X2744470Y-4795265D01*
X2882900Y-4236465D02*
G01*
X3049270Y-4236465D01*
X3079241Y-4634737D02*
G01*
X3069843Y-4662423D01*
X3051556Y-4680965D01*
X3023870Y-4690110D01*
X3014472Y-4690110D01*
X2986786Y-4680965D01*
X2968243Y-4662423D01*
X2959100Y-4634737D01*
X2959100Y-4625594D01*
X2968243Y-4597907D01*
X2986786Y-4579365D01*
X3014472Y-4570221D01*
X3023870Y-4570221D01*
X3051556Y-4579365D01*
X3069843Y-4597907D01*
X3079241Y-4634737D01*
X3079241Y-4680965D01*
X3069843Y-4727194D01*
X3051556Y-4754879D01*
X3023870Y-4764023D01*
X3005327Y-4764023D01*
X2977641Y-4754879D01*
X2968243Y-4736337D01*
X3140202Y-4570221D02*
G01*
X3214115Y-4764023D01*
X3288029Y-4570221D02*
G01*
X3214115Y-4764023D01*
D11*
X1668018Y114300D02*
G01*
X1460500Y152400D01*
X1358900Y-25400D01*
X1371600Y-25400D01*
X1485900Y-533400D01*
X3238500Y-1638300D01*
D12*
X457200Y-1193800D02*
G01*
X279400Y-1193800D01*
X279400Y-3416300D01*
X508000Y-3644900D01*
X600090Y-901700D02*
G01*
X459739Y-1193800D01*
X-1689994Y1129413D02*
G01*
X-1689994Y1270507D01*
X-1689994Y1270507D02*
G01*
X-1854200Y1434721D01*
X-1854200Y2387600D01*
X-1600200Y2387600D02*
G01*
X-1510388Y2297788D01*
X-1510388Y1309011D01*
X2832100Y2247900D02*
G01*
X2567322Y1983127D01*
X2567322Y1025344D01*
X3086100Y2139924D02*
G01*
X2817464Y1871296D01*
X2817464Y981255D01*
X3086100Y2247900D02*
G01*
X3086100Y2139924D01*
D11*
X3238500Y-1638300D02*
G01*
X3413409Y-1638300D01*
X3581400Y-1806295D01*
D12*
X-965200Y-4013200D02*
G01*
X-457200Y-4724400D01*
X-444500Y-4737100D01*
X2362200Y-4737100D01*
X545792Y-2425700D02*
G01*
X748764Y-2425700D01*
X761997Y-3644900D02*
G01*
X761997Y-2438933D01*
X748764Y-2425700D01*
X507997Y-4406900D02*
G01*
X761997Y-4152900D01*
X761997Y-3644900D01*
X1015997Y-3644900D02*
G01*
X1015997Y-3541928D01*
X1079802Y-2425700D02*
G01*
X876830Y-2425700D01*
X1015997Y-3541928D02*
G01*
X876830Y-3402761D01*
X876830Y-2425700D01*
D11*
X-965200Y-4013504D02*
G01*
X-114604Y-4013504D01*
X254000Y-3644900D01*
X254000Y-3644900D02*
G01*
X254000Y-4038600D01*
X63500Y-4229100D01*
X0Y-4229100D01*
X-63500Y-4292600D01*
X-63500Y-4572000D01*
X1028700Y-4572000D01*
X1028700Y-4419600D01*
X1016000Y-4406900D01*
D13*
G01*
X545795Y-2425700D03*
G01*
X1079804Y-2425700D03*
D14*
G01*
X1016000Y-3644900D03*
D15*
G01*
X762000Y-3644900D03*
G01*
X508000Y-3644900D03*
G01*
X254000Y-3644900D03*
G01*
X1016000Y-4406900D03*
G01*
X762000Y-4406900D03*
G01*
X508000Y-4406900D03*
G01*
X254000Y-4406900D03*
D16*
G01*
X2590800Y-2032000D03*
G01*
X2590800Y-2286000D03*
G01*
X2590800Y-1778000D03*
D17*
G01*
X3581400Y-3756304D03*
G01*
X3581400Y-1806295D03*
D18*
G01*
X-965200Y-2463495D03*
G01*
X-965200Y-4013504D03*
D19*
G01*
X-674001Y3074301D03*
D20*
G01*
X-494385Y2894685D03*
D21*
G01*
X-1854200Y2387600D03*
D20*
G01*
X-1600200Y2387600D03*
D22*
G01*
X-1690001Y1129398D03*
D20*
G01*
X-1510385Y1308988D03*
D23*
G01*
X-736600Y-8385D03*
D20*
G01*
X-609600Y211581D03*
D21*
G01*
X596900Y-901700D03*
D20*
G01*
X596900Y-647700D03*
D21*
G01*
X660400Y2628900D03*
D20*
G01*
X660400Y2374900D03*
D24*
G01*
X1887985Y-12700D03*
D20*
G01*
X1668018Y114300D03*
D25*
G01*
X2817469Y981246D03*
D20*
G01*
X2567330Y1025347D03*
D21*
G01*
X3086100Y2247900D03*
D20*
G01*
X2832100Y2247900D03*
D26*
G01*
X2044700Y3145285D03*
D20*
G01*
X1917700Y2925318D03*
D27*
G01*
X2362200Y-4737100D03*
G01*
X2628900Y-4305300D03*
M02*
