G04 Layer: TopSilkscreenLayer*
G04 EasyEDA v6.5.44, 2024-08-08 08:25:12*
G04 3ea92b5279af498992845473a6f1f495,b0d0efe6ac584fe99c24f131b36d675a,10*
G04 Gerber Generator version 0.2*
G04 Scale: 100 percent, Rotated: No, Reflected: No *
G04 Dimensions in millimeters *
G04 leading zeros omitted , absolute positions ,4 integer and 5 decimal *
%FSLAX45Y45*%
%MOMM*%

%ADD10C,0.1524*%
%ADD11C,0.2000*%
%ADD12C,0.2540*%
%ADD13C,0.2500*%
%ADD14C,0.6000*%
%ADD15C,0.0154*%

%LPD*%
D10*
X890778Y-1955292D02*
G01*
X885444Y-1944878D01*
X875029Y-1934463D01*
X864870Y-1929384D01*
X844042Y-1929384D01*
X833628Y-1934463D01*
X823213Y-1944878D01*
X817879Y-1955292D01*
X812800Y-1971039D01*
X812800Y-1996947D01*
X817879Y-2012442D01*
X823213Y-2022855D01*
X833628Y-2033270D01*
X844042Y-2038350D01*
X864870Y-2038350D01*
X875029Y-2033270D01*
X885444Y-2022855D01*
X890778Y-2012442D01*
X930147Y-1955292D02*
G01*
X930147Y-1950212D01*
X935481Y-1939797D01*
X940562Y-1934463D01*
X950976Y-1929384D01*
X971804Y-1929384D01*
X982218Y-1934463D01*
X987297Y-1939797D01*
X992631Y-1950212D01*
X992631Y-1960626D01*
X987297Y-1971039D01*
X976884Y-1986534D01*
X925068Y-2038350D01*
X997712Y-2038350D01*
X673100Y-4649215D02*
G01*
X673100Y-4540250D01*
X673100Y-4649215D02*
G01*
X600455Y-4540250D01*
X600455Y-4649215D02*
G01*
X600455Y-4540250D01*
X566165Y-4649215D02*
G01*
X566165Y-4540250D01*
X566165Y-4649215D02*
G01*
X498602Y-4649215D01*
X566165Y-4597400D02*
G01*
X524510Y-4597400D01*
X566165Y-4540250D02*
G01*
X498602Y-4540250D01*
X401828Y-4649215D02*
G01*
X453897Y-4649215D01*
X458978Y-4602479D01*
X453897Y-4607560D01*
X438150Y-4612894D01*
X422655Y-4612894D01*
X407162Y-4607560D01*
X396747Y-4597400D01*
X391413Y-4581652D01*
X391413Y-4571237D01*
X396747Y-4555744D01*
X407162Y-4545329D01*
X422655Y-4540250D01*
X438150Y-4540250D01*
X453897Y-4545329D01*
X458978Y-4550410D01*
X464312Y-4560823D01*
X294894Y-4649215D02*
G01*
X346710Y-4649215D01*
X352044Y-4602479D01*
X346710Y-4607560D01*
X331215Y-4612894D01*
X315721Y-4612894D01*
X299973Y-4607560D01*
X289560Y-4597400D01*
X284479Y-4581652D01*
X284479Y-4571237D01*
X289560Y-4555744D01*
X299973Y-4545329D01*
X315721Y-4540250D01*
X331215Y-4540250D01*
X346710Y-4545329D01*
X352044Y-4550410D01*
X357123Y-4560823D01*
X187960Y-4649215D02*
G01*
X239776Y-4649215D01*
X245110Y-4602479D01*
X239776Y-4607560D01*
X224281Y-4612894D01*
X208534Y-4612894D01*
X193039Y-4607560D01*
X182626Y-4597400D01*
X177545Y-4581652D01*
X177545Y-4571237D01*
X182626Y-4555744D01*
X193039Y-4545329D01*
X208534Y-4540250D01*
X224281Y-4540250D01*
X239776Y-4545329D01*
X245110Y-4550410D01*
X250189Y-4560823D01*
X143255Y-4649215D02*
G01*
X143255Y-4540250D01*
X143255Y-4649215D02*
G01*
X96520Y-4649215D01*
X80771Y-4644136D01*
X75692Y-4638802D01*
X70357Y-4628387D01*
X70357Y-4612894D01*
X75692Y-4602479D01*
X80771Y-4597400D01*
X96520Y-4592065D01*
X143255Y-4592065D01*
X2597500Y-2630931D02*
G01*
X2597500Y-2521965D01*
X2597500Y-2630931D02*
G01*
X2550764Y-2630931D01*
X2535270Y-2625852D01*
X2529936Y-2620518D01*
X2524856Y-2610104D01*
X2524856Y-2599689D01*
X2529936Y-2589276D01*
X2535270Y-2584195D01*
X2550764Y-2579115D01*
X2597500Y-2579115D01*
X2561178Y-2579115D02*
G01*
X2524856Y-2521965D01*
X2490566Y-2610104D02*
G01*
X2480152Y-2615437D01*
X2464404Y-2630931D01*
X2464404Y-2521965D01*
X3186684Y-2781300D02*
G01*
X3295650Y-2781300D01*
X3186684Y-2781300D02*
G01*
X3186684Y-2734563D01*
X3191763Y-2719070D01*
X3197097Y-2713736D01*
X3207511Y-2708655D01*
X3217925Y-2708655D01*
X3228340Y-2713736D01*
X3233420Y-2719070D01*
X3238500Y-2734563D01*
X3238500Y-2781300D01*
X3238500Y-2744978D02*
G01*
X3295650Y-2708655D01*
X3212591Y-2669031D02*
G01*
X3207511Y-2669031D01*
X3197097Y-2663952D01*
X3191763Y-2658618D01*
X3186684Y-2648204D01*
X3186684Y-2627629D01*
X3191763Y-2617215D01*
X3197097Y-2611881D01*
X3207511Y-2606802D01*
X3217925Y-2606802D01*
X3228340Y-2611881D01*
X3243834Y-2622295D01*
X3295650Y-2674365D01*
X3295650Y-2601468D01*
X-595884Y-3238500D02*
G01*
X-704850Y-3238500D01*
X-595884Y-3238500D02*
G01*
X-595884Y-3285236D01*
X-600963Y-3300729D01*
X-606297Y-3306063D01*
X-616712Y-3311144D01*
X-627126Y-3311144D01*
X-637539Y-3306063D01*
X-642620Y-3300729D01*
X-647700Y-3285236D01*
X-647700Y-3238500D01*
X-647700Y-3274821D02*
G01*
X-704850Y-3311144D01*
X-595884Y-3355847D02*
G01*
X-595884Y-3412997D01*
X-637539Y-3382010D01*
X-637539Y-3397504D01*
X-642620Y-3407918D01*
X-647700Y-3412997D01*
X-663447Y-3418331D01*
X-673862Y-3418331D01*
X-689355Y-3412997D01*
X-699770Y-3402584D01*
X-704850Y-3387089D01*
X-704850Y-3371595D01*
X-699770Y-3355847D01*
X-694689Y-3350768D01*
X-684276Y-3345434D01*
X-307098Y3281248D02*
G01*
X-307098Y3203270D01*
X-302018Y3187776D01*
X-291604Y3177362D01*
X-275856Y3172282D01*
X-265442Y3172282D01*
X-249948Y3177362D01*
X-239534Y3187776D01*
X-234454Y3203270D01*
X-234454Y3281248D01*
X-200164Y3260420D02*
G01*
X-189750Y3265754D01*
X-174002Y3281248D01*
X-174002Y3172282D01*
X-1727200Y2858515D02*
G01*
X-1727200Y2780537D01*
X-1722120Y2765044D01*
X-1711705Y2754629D01*
X-1695957Y2749550D01*
X-1685544Y2749550D01*
X-1670050Y2754629D01*
X-1659636Y2765044D01*
X-1654555Y2780537D01*
X-1654555Y2858515D01*
X-1614931Y2832607D02*
G01*
X-1614931Y2837687D01*
X-1609852Y2848102D01*
X-1604518Y2853436D01*
X-1594104Y2858515D01*
X-1573529Y2858515D01*
X-1563115Y2853436D01*
X-1557781Y2848102D01*
X-1552702Y2837687D01*
X-1552702Y2827273D01*
X-1557781Y2816860D01*
X-1568195Y2801365D01*
X-1620265Y2749550D01*
X-1547368Y2749550D01*
X-1926963Y1628094D02*
G01*
X-1926963Y1550116D01*
X-1921883Y1534622D01*
X-1911469Y1524208D01*
X-1895721Y1519128D01*
X-1885307Y1519128D01*
X-1869813Y1524208D01*
X-1859399Y1534622D01*
X-1854319Y1550116D01*
X-1854319Y1628094D01*
X-1809615Y1628094D02*
G01*
X-1752465Y1628094D01*
X-1783453Y1586438D01*
X-1767959Y1586438D01*
X-1757545Y1581358D01*
X-1752465Y1576278D01*
X-1747131Y1560530D01*
X-1747131Y1550116D01*
X-1752465Y1534622D01*
X-1762879Y1524208D01*
X-1778373Y1519128D01*
X-1793867Y1519128D01*
X-1809615Y1524208D01*
X-1814695Y1529288D01*
X-1820029Y1539702D01*
X-1046533Y299600D02*
G01*
X-968555Y299600D01*
X-953061Y304680D01*
X-942647Y315094D01*
X-937567Y330842D01*
X-937567Y341256D01*
X-942647Y356750D01*
X-953061Y367164D01*
X-968555Y372244D01*
X-1046533Y372244D01*
X-1046533Y458604D02*
G01*
X-973889Y406534D01*
X-973889Y484512D01*
X-1046533Y458604D02*
G01*
X-937567Y458604D01*
X139026Y-771403D02*
G01*
X217004Y-771403D01*
X232498Y-766323D01*
X242912Y-755909D01*
X247992Y-740161D01*
X247992Y-729747D01*
X242912Y-714253D01*
X232498Y-703839D01*
X217004Y-698759D01*
X139026Y-698759D01*
X139026Y-601985D02*
G01*
X139026Y-654055D01*
X185762Y-659135D01*
X180682Y-654055D01*
X175348Y-638307D01*
X175348Y-622813D01*
X180682Y-607319D01*
X190842Y-596905D01*
X206590Y-591571D01*
X217004Y-591571D01*
X232498Y-596905D01*
X242912Y-607319D01*
X247992Y-622813D01*
X247992Y-638307D01*
X242912Y-654055D01*
X237832Y-659135D01*
X227418Y-664469D01*
X1131315Y2501900D02*
G01*
X1053337Y2501900D01*
X1037844Y2496820D01*
X1027429Y2486405D01*
X1022350Y2470657D01*
X1022350Y2460244D01*
X1027429Y2444750D01*
X1037844Y2434336D01*
X1053337Y2429255D01*
X1131315Y2429255D01*
X1115821Y2332481D02*
G01*
X1126236Y2337815D01*
X1131315Y2353310D01*
X1131315Y2363723D01*
X1126236Y2379218D01*
X1110487Y2389631D01*
X1084579Y2394965D01*
X1058671Y2394965D01*
X1037844Y2389631D01*
X1027429Y2379218D01*
X1022350Y2363723D01*
X1022350Y2358389D01*
X1027429Y2342895D01*
X1037844Y2332481D01*
X1053337Y2327402D01*
X1058671Y2327402D01*
X1074165Y2332481D01*
X1084579Y2342895D01*
X1089660Y2358389D01*
X1089660Y2363723D01*
X1084579Y2379218D01*
X1074165Y2389631D01*
X1058671Y2394965D01*
X1425417Y-254805D02*
G01*
X1425417Y-332783D01*
X1430497Y-348277D01*
X1440911Y-358691D01*
X1456659Y-363771D01*
X1467073Y-363771D01*
X1482567Y-358691D01*
X1492981Y-348277D01*
X1498061Y-332783D01*
X1498061Y-254805D01*
X1605249Y-254805D02*
G01*
X1553179Y-363771D01*
X1532351Y-254805D02*
G01*
X1605249Y-254805D01*
X2445110Y652228D02*
G01*
X2445110Y574250D01*
X2450190Y558756D01*
X2460604Y548342D01*
X2476352Y543262D01*
X2486766Y543262D01*
X2502260Y548342D01*
X2512674Y558756D01*
X2517754Y574250D01*
X2517754Y652228D01*
X2578206Y652228D02*
G01*
X2562458Y647148D01*
X2557378Y636734D01*
X2557378Y626320D01*
X2562458Y615906D01*
X2572872Y610572D01*
X2593700Y605492D01*
X2609194Y600412D01*
X2619608Y589998D01*
X2624942Y579584D01*
X2624942Y563836D01*
X2619608Y553422D01*
X2614528Y548342D01*
X2598780Y543262D01*
X2578206Y543262D01*
X2562458Y548342D01*
X2557378Y553422D01*
X2552044Y563836D01*
X2552044Y579584D01*
X2557378Y589998D01*
X2567792Y600412D01*
X2583286Y605492D01*
X2604114Y610572D01*
X2614528Y615906D01*
X2619608Y626320D01*
X2619608Y636734D01*
X2614528Y647148D01*
X2598780Y652228D01*
X2578206Y652228D01*
X2959100Y1776984D02*
G01*
X2959100Y1854962D01*
X2954020Y1870455D01*
X2943606Y1880870D01*
X2927858Y1885950D01*
X2917443Y1885950D01*
X2901950Y1880870D01*
X2891536Y1870455D01*
X2886456Y1854962D01*
X2886456Y1776984D01*
X2784602Y1813305D02*
G01*
X2789681Y1828800D01*
X2800095Y1839213D01*
X2815590Y1844547D01*
X2820924Y1844547D01*
X2836418Y1839213D01*
X2846831Y1828800D01*
X2852165Y1813305D01*
X2852165Y1808226D01*
X2846831Y1792478D01*
X2836418Y1782063D01*
X2820924Y1776984D01*
X2815590Y1776984D01*
X2800095Y1782063D01*
X2789681Y1792478D01*
X2784602Y1813305D01*
X2784602Y1839213D01*
X2789681Y1865376D01*
X2800095Y1880870D01*
X2815590Y1885950D01*
X2826004Y1885950D01*
X2841752Y1880870D01*
X2846831Y1870455D01*
X2238273Y2611097D02*
G01*
X2316251Y2611097D01*
X2331745Y2616177D01*
X2342159Y2626591D01*
X2347239Y2642339D01*
X2347239Y2652753D01*
X2342159Y2668247D01*
X2331745Y2678661D01*
X2316251Y2683741D01*
X2238273Y2683741D01*
X2259101Y2718031D02*
G01*
X2253767Y2728445D01*
X2238273Y2744193D01*
X2347239Y2744193D01*
X2238273Y2809471D02*
G01*
X2243353Y2793977D01*
X2259101Y2783563D01*
X2285009Y2778483D01*
X2300503Y2778483D01*
X2326665Y2783563D01*
X2342159Y2793977D01*
X2347239Y2809471D01*
X2347239Y2819885D01*
X2342159Y2835633D01*
X2326665Y2846047D01*
X2300503Y2851127D01*
X2285009Y2851127D01*
X2259101Y2846047D01*
X2243353Y2835633D01*
X2238273Y2819885D01*
X2238273Y2809471D01*
G36*
X1043787Y-2567584D02*
G01*
X1043787Y-2587396D01*
X1122984Y-2587396D01*
X1122984Y-2567584D01*
G37*
G36*
X502615Y-2567584D02*
G01*
X502615Y-2587396D01*
X581812Y-2587396D01*
X581812Y-2567584D01*
G37*
G36*
X532282Y-2511501D02*
G01*
X532282Y-2643479D01*
X552094Y-2643479D01*
X552094Y-2511501D01*
G37*
X1148361Y-2499626D02*
G01*
X1150365Y-2763265D01*
X614679Y-2763265D01*
X475234Y-2623820D01*
X476570Y-2494279D01*
X1149748Y-2354930D02*
G01*
X1150416Y-2088083D01*
X614796Y-2088083D01*
X475183Y-2227696D01*
X475183Y-2357120D01*
D11*
X1128999Y-4089900D02*
G01*
X1129029Y-4089400D01*
X1129029Y-4290821D01*
X138937Y-4290821D01*
X138937Y-3760978D01*
X1129029Y-3760978D01*
X1129029Y-3962400D01*
X1128999Y-3961899D01*
D12*
X2457800Y-2312415D02*
G01*
X2419700Y-2312415D01*
X2381600Y-2312415D01*
X2419700Y-2312415D01*
X2864200Y-2514600D02*
G01*
X2330800Y-2514600D01*
X2330800Y-1549400D01*
X2864200Y-1549400D01*
X2864200Y-2514600D01*
X2848808Y-2507005D02*
G01*
X2828818Y-2507005D01*
X2828818Y-2430805D01*
X2848808Y-2430805D01*
X2848808Y-2507005D01*
X2848808Y-1633220D02*
G01*
X2828818Y-1633220D01*
X2828818Y-1557020D01*
X2848808Y-1557020D01*
X2848808Y-1633220D01*
X3331400Y-3556297D02*
G01*
X3331400Y-2006345D01*
X3831399Y-2006345D01*
X3331400Y-3556297D02*
G01*
X3831399Y-3556299D01*
X3831399Y-3556299D02*
G01*
X3831399Y-2006345D01*
X-1190200Y-2663499D02*
G01*
X-740199Y-2663499D01*
X-740199Y-2663499D02*
G01*
X-740199Y-3813500D01*
X-740199Y-3813500D02*
G01*
X-1190200Y-3813500D01*
X-1191260Y-3812539D02*
G01*
X-1191260Y-2664460D01*
X-539297Y2670190D02*
G01*
X-269890Y2939597D01*
X-566239Y3182066D02*
G01*
X-530318Y3146145D01*
X-530318Y3182066D02*
G01*
X-566239Y3146145D01*
X-1473200Y2197100D02*
G01*
X-1473200Y2578100D01*
X-1854200Y2540000D02*
G01*
X-1803400Y2540000D01*
X-1828800Y2565400D02*
G01*
X-1828800Y2514600D01*
X-1285890Y1264102D02*
G01*
X-1555297Y1533509D01*
X-1797766Y1237160D02*
G01*
X-1761845Y1273081D01*
X-1797766Y1273081D02*
G01*
X-1761845Y1237160D01*
X-381121Y226321D02*
G01*
X-711078Y416821D01*
X-868583Y67815D02*
G01*
X-843183Y111808D01*
X-877879Y102511D02*
G01*
X-833884Y77111D01*
X787400Y-520700D02*
G01*
X406400Y-520700D01*
X444500Y-901700D02*
G01*
X444500Y-850900D01*
X419100Y-876300D02*
G01*
X469900Y-876300D01*
X469900Y2247900D02*
G01*
X850900Y2247900D01*
X812800Y2628900D02*
G01*
X812800Y2578100D01*
X838200Y2603500D02*
G01*
X787400Y2603500D01*
X1653278Y342778D02*
G01*
X1462778Y12821D01*
X1811784Y-144683D02*
G01*
X1767791Y-119283D01*
X1777088Y-153979D02*
G01*
X1802488Y-109984D01*
X2475339Y1235011D02*
G01*
X2409179Y859800D01*
X2791005Y831161D02*
G01*
X2740977Y839983D01*
X2761581Y810559D02*
G01*
X2770403Y860587D01*
X2705100Y2438400D02*
G01*
X2705100Y2057400D01*
X3086100Y2095500D02*
G01*
X3035300Y2095500D01*
X3060700Y2070100D02*
G01*
X3060700Y2120900D01*
X1689221Y2910578D02*
G01*
X2019178Y2720078D01*
X2176683Y3069084D02*
G01*
X2151283Y3025091D01*
X2185979Y3034388D02*
G01*
X2141984Y3059788D01*
D11*
G75*
G01*
X1129000Y-3961900D02*
G03*
X1129000Y-4088900I0J-63500D01*
D13*
G75*
G01*
X1158494Y-3644900D02*
G03*
X1158494Y-3645154I-12499J-127D01*
D14*
G75*
G01*
X1080008Y-3860800D02*
G03*
X1080008Y-3861308I-29999J-254D01*
D12*
G75*
G01*
X2365733Y-2312416D02*
G03*
X2365733Y-2311400I53998J508D01*
G75*
G01*
X-539298Y2670190D02*
G02*
X-269890Y2939598I-44901J314309D01*
G75*
G01*
X-1473200Y2197100D02*
G02*
X-1473200Y2578100I-254000J190500D01*
G75*
G01*
X-1285890Y1264102D02*
G02*
X-1555298Y1533510I-314309J-44901D01*
G75*
G01*
X-381122Y226322D02*
G02*
X-711078Y416822I-291978J-124721D01*
G75*
G01*
X787400Y-520700D02*
G02*
X406400Y-520700I-190500J-254000D01*
G75*
G01*
X469900Y2247900D02*
G02*
X850900Y2247900I190500J254000D01*
G75*
G01*
X1653278Y342778D02*
G02*
X1462778Y12822I124721J-291978D01*
G75*
G01*
X2475339Y1235011D02*
G02*
X2409180Y859800I217062J-231712D01*
G75*
G01*
X2705100Y2438400D02*
G02*
X2705100Y2057400I254000J-190500D01*
G75*
G01*
X1689222Y2910578D02*
G02*
X2019178Y2720078I291978J124721D01*
G75*
G01
X-330200Y2984500D02*
G03X-330200Y2984500I-254000J0D01*
G75*
G01
X-1473200Y2387600D02*
G03X-1473200Y2387600I-254000J0D01*
G75*
G01
X-1346200Y1219200D02*
G03X-1346200Y1219200I-254000J0D01*
G75*
G01
X-419100Y101600D02*
G03X-419100Y101600I-254000J0D01*
G75*
G01
X850900Y-774700D02*
G03X850900Y-774700I-254000J0D01*
G75*
G01
X914400Y2501900D02*
G03X914400Y2501900I-254000J0D01*
G75*
G01
X2032000Y50800D02*
G03X2032000Y50800I-254000J0D01*
G75*
G01
X2946400Y1003300D02*
G03X2946400Y1003300I-254000J0D01*
G75*
G01
X3213100Y2247900D02*
G03X3213100Y2247900I-254000J0D01*
G75*
G01
X2235200Y3035300D02*
G03X2235200Y3035300I-254000J0D01*
M02*
