G04 Layer: BottomLayer*
G04 EasyEDA v6.5.44, 2024-08-08 08:25:12*
G04 3ea92b5279af498992845473a6f1f495,b0d0efe6ac584fe99c24f131b36d675a,10*
G04 Gerber Generator version 0.2*
G04 Scale: 100 percent, Rotated: No, Reflected: No *
G04 Dimensions in millimeters *
G04 leading zeros omitted , absolute positions ,4 integer and 5 decimal *
%FSLAX45Y45*%
%MOMM*%

%AMMACRO1*21,1,$1,$2,0,0,$3*%
%ADD10C,0.2540*%
%ADD11R,1.5000X1.5000*%
%ADD12C,1.5000*%
%ADD13C,1.5240*%
%ADD14C,2.3000*%
%ADD15C,1.8796*%
%ADD16MACRO1,1.6X1.6X-45.0000*%
%ADD17C,1.6000*%
%ADD18R,1.6000X1.6000*%
%ADD19MACRO1,1.6X1.6X45.0000*%
%ADD20MACRO1,1.6X1.6X60.0001*%
%ADD21MACRO1,1.6X1.6X150.0001*%
%ADD22MACRO1,1.6X1.6X170.0002*%
%ADD23MACRO1,1.6X1.6X-119.9999*%
%ADD24C,2.5000*%

%LPD*%
D10*
X152400Y-889000D02*
G01*
X410715Y-901700D01*
X596900Y-901700D01*
X596900Y-901700D02*
G01*
X744976Y-901700D01*
X1003300Y-901700D01*
X-1854200Y2387600D02*
G01*
X-1746224Y2387600D01*
X-1746224Y2387600D02*
G01*
X-1746224Y2414600D01*
X-1086512Y3074311D01*
X-673994Y3074311D01*
X-736600Y-8384D02*
G01*
X156715Y-901700D01*
X998976Y-901700D02*
G01*
X1887976Y-12700D01*
X660400Y2628900D02*
G01*
X552419Y2628900D01*
X552419Y2628900D02*
G01*
X107007Y3074311D01*
X-673994Y3074311D01*
X714400Y2628900D02*
G01*
X660400Y2628900D01*
X714400Y2628900D02*
G01*
X768375Y2628900D01*
X2978124Y2274900D02*
G01*
X2107740Y3145284D01*
X2044700Y3145284D01*
X2044700Y3145284D02*
G01*
X1284752Y3145284D01*
X768375Y2628900D01*
X-1600200Y2387600D02*
G01*
X-1001501Y2387600D01*
X-494388Y2894713D01*
X-609600Y211584D02*
G01*
X-262384Y211584D01*
X596900Y-647700D01*
X1668015Y114300D02*
G01*
X1668015Y126032D01*
X2567322Y1025344D01*
X596900Y-647700D02*
G01*
X906015Y-647700D01*
X1668015Y114300D01*
X660400Y2374900D02*
G01*
X25425Y2374900D01*
X-494388Y2894713D01*
X1917700Y2925315D02*
G01*
X1367276Y2374900D01*
X660400Y2374900D01*
X1917700Y2925315D02*
G01*
X2154684Y2925315D01*
X2832100Y2247900D01*
X1887976Y-12700D02*
G01*
X2817464Y916787D01*
X2817464Y981255D01*
X2978124Y2247900D02*
G01*
X2978124Y2274900D01*
X3086100Y2247900D02*
G01*
X2978124Y2247900D01*
X2590797Y-1778000D02*
G01*
X2703243Y-1890445D01*
X2703243Y-2332151D01*
X1515615Y-3519779D01*
X887117Y-3519779D01*
X761997Y-3644900D01*
X1015997Y-3644900D02*
G01*
X2306520Y-3644900D01*
X2778859Y-4117238D01*
X650872Y-2463495D02*
G01*
X2413302Y-2463495D01*
X2590797Y-2286000D01*
X-965202Y-2463495D02*
G01*
X650872Y-2463495D01*
X650872Y-2463495D02*
G01*
X650872Y-4295775D01*
X761997Y-4406900D01*
X3581397Y-3756304D02*
G01*
X3581397Y-3810000D01*
X3086097Y-3810000D01*
X2778859Y-4117238D01*
X2778856Y-4117339D02*
G01*
X2590794Y-4305300D01*
X2628900Y-4330700D01*
D11*
G01*
X1016000Y-3644900D03*
D12*
G01*
X762000Y-3644900D03*
G01*
X508000Y-3644900D03*
G01*
X254000Y-3644900D03*
G01*
X1016000Y-4406900D03*
G01*
X762000Y-4406900D03*
G01*
X508000Y-4406900D03*
G01*
X254000Y-4406900D03*
D13*
G01*
X2590800Y-2032000D03*
G01*
X2590800Y-2286000D03*
G01*
X2590800Y-1778000D03*
D14*
G01*
X3581400Y-3756304D03*
G01*
X3581400Y-1806295D03*
D15*
G01*
X-965200Y-2463495D03*
G01*
X-965200Y-4013504D03*
D16*
G01*
X-674001Y3074301D03*
D17*
G01*
X-494385Y2894685D03*
D18*
G01*
X-1854200Y2387600D03*
D17*
G01*
X-1600200Y2387600D03*
D19*
G01*
X-1690001Y1129398D03*
D17*
G01*
X-1510385Y1308988D03*
D20*
G01*
X-736600Y-8385D03*
D17*
G01*
X-609600Y211581D03*
D18*
G01*
X596900Y-901700D03*
D17*
G01*
X596900Y-647700D03*
D18*
G01*
X660400Y2628900D03*
D17*
G01*
X660400Y2374900D03*
D21*
G01*
X1887985Y-12700D03*
D17*
G01*
X1668018Y114300D03*
D22*
G01*
X2817469Y981246D03*
D17*
G01*
X2567330Y1025347D03*
D18*
G01*
X3086100Y2247900D03*
D17*
G01*
X2832100Y2247900D03*
D23*
G01*
X2044700Y3145285D03*
D17*
G01*
X1917700Y2925318D03*
D24*
G01*
X2362200Y-4737100D03*
G01*
X2628900Y-4305300D03*
M02*
